<svg xmlns="http://www.w3.org/2000/svg" xmlns:xlink="http://www.w3.org/1999/xlink" width="500" zoomAndPan="magnify" viewBox="0 0 375 374.999991" height="500" preserveAspectRatio="xMidYMid meet" version="1.0"><defs><g/><clipPath id="8b686a1acc"><path d="M 66 107 L 127 107 L 127 174 L 66 174 Z M 66 107 " clip-rule="nonzero"/></clipPath><clipPath id="7e55e8eb71"><path d="M 51.234375 138.417969 L 107.484375 97.171875 L 140.746094 142.53125 L 84.5 183.777344 Z M 51.234375 138.417969 " clip-rule="nonzero"/></clipPath><clipPath id="dbd7d16467"><path d="M 51.234375 138.417969 L 107.484375 97.171875 L 140.746094 142.53125 L 84.5 183.777344 Z M 51.234375 138.417969 " clip-rule="nonzero"/></clipPath></defs><g fill="#efecec" fill-opacity="1"><g transform="translate(89.844263, 198.806545)"><g><path d="M 61.015625 -32.3125 C 61.867188 -32.039062 62.488281 -31.625 62.875 -31.0625 C 63.257812 -30.507812 63.441406 -29.875 63.421875 -29.15625 C 63.410156 -28.4375 63.234375 -27.691406 62.890625 -26.921875 C 62.554688 -26.148438 62.097656 -25.40625 61.515625 -24.6875 C 60.941406 -23.976562 60.273438 -23.351562 59.515625 -22.8125 C 58.753906 -22.269531 57.953125 -21.867188 57.109375 -21.609375 C 56.265625 -21.347656 55.410156 -21.285156 54.546875 -21.421875 C 53.691406 -21.554688 52.867188 -21.945312 52.078125 -22.59375 C 51.890625 -22.757812 51.832031 -22.9375 51.90625 -23.125 C 51.976562 -23.320312 52.113281 -23.460938 52.3125 -23.546875 C 52.507812 -23.628906 52.707031 -23.585938 52.90625 -23.421875 C 53.476562 -22.953125 54.125 -22.6875 54.84375 -22.625 C 55.570312 -22.5625 56.304688 -22.660156 57.046875 -22.921875 C 57.785156 -23.179688 58.492188 -23.546875 59.171875 -24.015625 C 59.859375 -24.492188 60.460938 -25.035156 60.984375 -25.640625 C 61.515625 -26.253906 61.910156 -26.878906 62.171875 -27.515625 C 62.429688 -28.160156 62.519531 -28.769531 62.4375 -29.34375 C 62.363281 -29.925781 62.050781 -30.414062 61.5 -30.8125 C 61.019531 -31.164062 60.445312 -31.398438 59.78125 -31.515625 C 59.113281 -31.628906 58.394531 -31.648438 57.625 -31.578125 C 56.863281 -31.515625 56.097656 -31.398438 55.328125 -31.234375 C 54.566406 -31.078125 53.84375 -30.90625 53.15625 -30.71875 C 52.46875 -30.53125 51.878906 -30.367188 51.390625 -30.234375 C 49.566406 -29.734375 47.773438 -29.117188 46.015625 -28.390625 C 44.253906 -27.671875 42.523438 -26.882812 40.828125 -26.03125 C 37.578125 -24.351562 34.394531 -22.484375 31.28125 -20.421875 C 28.175781 -18.359375 25.191406 -16.144531 22.328125 -13.78125 C 23.160156 -12.144531 24.148438 -10.578125 25.296875 -9.078125 C 26.453125 -7.578125 27.707031 -6.207031 29.0625 -4.96875 C 31.207031 -3.007812 33.46875 -1.695312 35.84375 -1.03125 C 38.21875 -0.375 40.613281 -0.347656 43.03125 -0.953125 C 45.457031 -1.566406 47.8125 -2.769531 50.09375 -4.5625 C 50.289062 -4.707031 50.488281 -4.738281 50.6875 -4.65625 C 50.882812 -4.582031 51.019531 -4.445312 51.09375 -4.25 C 51.175781 -4.0625 51.117188 -3.890625 50.921875 -3.734375 C 49.285156 -2.441406 47.59375 -1.421875 45.84375 -0.671875 C 44.09375 0.078125 42.316406 0.519531 40.515625 0.65625 C 38.722656 0.800781 36.9375 0.597656 35.15625 0.046875 C 33.375 -0.503906 31.628906 -1.425781 29.921875 -2.71875 C 28.179688 -4.050781 26.582031 -5.609375 25.125 -7.390625 C 23.664062 -9.171875 22.429688 -11.039062 21.421875 -13 C 20.585938 -12.300781 19.769531 -11.59375 18.96875 -10.875 C 18.164062 -10.164062 17.375 -9.441406 16.59375 -8.703125 C 16.53125 -8.640625 16.453125 -8.597656 16.359375 -8.578125 C 15.546875 -7.046875 14.65625 -5.609375 13.6875 -4.265625 C 12.726562 -2.929688 11.695312 -1.789062 10.59375 -0.84375 C 9.5 0.101562 8.335938 0.78125 7.109375 1.1875 C 5.890625 1.59375 4.601562 1.644531 3.25 1.34375 C 1.894531 1.050781 0.484375 0.320312 -0.984375 -0.84375 C -1.171875 -0.988281 -1.226562 -1.15625 -1.15625 -1.34375 C -1.082031 -1.539062 -0.945312 -1.6875 -0.75 -1.78125 C -0.550781 -1.875 -0.351562 -1.835938 -0.15625 -1.671875 C 1.132812 -0.628906 2.378906 0.00390625 3.578125 0.234375 C 4.785156 0.472656 5.9375 0.394531 7.03125 0 C 8.132812 -0.394531 9.179688 -1.039062 10.171875 -1.9375 C 11.171875 -2.84375 12.109375 -3.914062 12.984375 -5.15625 C 13.859375 -6.40625 14.671875 -7.753906 15.421875 -9.203125 C 16.171875 -10.648438 16.851562 -12.125 17.46875 -13.625 C 18.09375 -15.132812 18.648438 -16.59375 19.140625 -18 C 19.640625 -19.414062 20.054688 -20.703125 20.390625 -21.859375 C 19.617188 -21.160156 18.78125 -20.640625 17.875 -20.296875 C 16.96875 -19.960938 16.054688 -19.898438 15.140625 -20.109375 C 14.222656 -20.328125 13.335938 -20.921875 12.484375 -21.890625 C 12.328125 -22.066406 12.285156 -22.257812 12.359375 -22.46875 C 12.441406 -22.675781 12.578125 -22.816406 12.765625 -22.890625 C 12.960938 -22.960938 13.144531 -22.90625 13.3125 -22.71875 C 14 -21.9375 14.695312 -21.460938 15.40625 -21.296875 C 16.125 -21.128906 16.828125 -21.171875 17.515625 -21.421875 C 18.210938 -21.671875 18.867188 -22.066406 19.484375 -22.609375 C 20.109375 -23.148438 20.65625 -23.753906 21.125 -24.421875 C 21.257812 -24.597656 21.421875 -24.691406 21.609375 -24.703125 C 21.796875 -24.710938 21.953125 -24.648438 22.078125 -24.515625 C 22.210938 -24.378906 22.253906 -24.203125 22.203125 -23.984375 C 21.953125 -22.984375 21.613281 -21.796875 21.1875 -20.421875 C 20.757812 -19.054688 20.253906 -17.59375 19.671875 -16.03125 C 19.097656 -14.46875 18.445312 -12.894531 17.71875 -11.3125 C 18.863281 -12.332031 20.03125 -13.320312 21.21875 -14.28125 C 22.40625 -15.238281 23.609375 -16.1875 24.828125 -17.125 C 27.617188 -19.25 30.5 -21.257812 33.46875 -23.15625 C 36.4375 -25.050781 39.515625 -26.742188 42.703125 -28.234375 C 44.273438 -28.960938 45.878906 -29.625 47.515625 -30.21875 C 49.148438 -30.820312 50.820312 -31.328125 52.53125 -31.734375 C 53.382812 -31.921875 54.300781 -32.109375 55.28125 -32.296875 C 56.257812 -32.492188 57.238281 -32.609375 58.21875 -32.640625 C 59.195312 -32.679688 60.128906 -32.570312 61.015625 -32.3125 Z M 61.015625 -32.3125 "/></g></g></g><g fill="#efecec" fill-opacity="1"><g transform="translate(142.719603, 198.806545)"><g><path d="M 26.46875 -17.078125 C 25.726562 -15.828125 24.789062 -14.691406 23.65625 -13.671875 C 22.519531 -12.660156 21.285156 -11.78125 19.953125 -11.03125 C 18.617188 -10.28125 17.28125 -9.671875 15.9375 -9.203125 C 14.601562 -8.734375 13.375 -8.410156 12.25 -8.234375 C 12.101562 -8.222656 12 -8.148438 11.9375 -8.015625 C 11.875 -7.898438 11.878906 -7.773438 11.953125 -7.640625 C 12.410156 -6.898438 12.914062 -6.132812 13.46875 -5.34375 C 14.03125 -4.550781 14.640625 -3.820312 15.296875 -3.15625 C 15.953125 -2.488281 16.644531 -1.945312 17.375 -1.53125 C 18.113281 -1.113281 18.898438 -0.90625 19.734375 -0.90625 C 19.847656 -0.90625 19.972656 -0.914062 20.109375 -0.9375 C 20.703125 -0.976562 21.222656 -1.128906 21.671875 -1.390625 C 22.128906 -1.648438 22.515625 -1.957031 22.828125 -2.3125 C 23.140625 -2.664062 23.390625 -3.015625 23.578125 -3.359375 C 23.773438 -3.710938 23.914062 -4.003906 24 -4.234375 C 24.09375 -4.472656 24.140625 -4.597656 24.140625 -4.609375 C 24.179688 -4.753906 24.269531 -4.867188 24.40625 -4.953125 C 24.550781 -5.035156 24.695312 -5.054688 24.84375 -5.015625 C 25.007812 -4.953125 25.128906 -4.847656 25.203125 -4.703125 C 25.273438 -4.566406 25.289062 -4.425781 25.25 -4.28125 C 25.238281 -4.25 25.175781 -4.082031 25.0625 -3.78125 C 24.945312 -3.488281 24.769531 -3.132812 24.53125 -2.71875 C 24.300781 -2.300781 23.988281 -1.875 23.59375 -1.4375 C 23.207031 -1.007812 22.734375 -0.640625 22.171875 -0.328125 C 21.609375 -0.015625 20.945312 0.175781 20.1875 0.25 C 20.03125 0.25 19.867188 0.25 19.703125 0.25 C 18.785156 0.25 17.925781 0.0507812 17.125 -0.34375 C 16.332031 -0.738281 15.585938 -1.257812 14.890625 -1.90625 C 14.191406 -2.5625 13.550781 -3.28125 12.96875 -4.0625 C 12.382812 -4.851562 11.847656 -5.632812 11.359375 -6.40625 C 11.328125 -6.457031 11.28125 -6.472656 11.21875 -6.453125 C 11.164062 -6.453125 11.140625 -6.425781 11.140625 -6.375 C 10.878906 -5.269531 10.601562 -4.273438 10.3125 -3.390625 C 10.03125 -2.515625 9.695312 -1.789062 9.3125 -1.21875 C 8.9375 -0.65625 8.488281 -0.304688 7.96875 -0.171875 C 7.75 -0.117188 7.554688 -0.164062 7.390625 -0.3125 C 7.222656 -0.476562 7.171875 -0.671875 7.234375 -0.890625 C 7.296875 -1.109375 7.4375 -1.242188 7.65625 -1.296875 C 7.9375 -1.367188 8.195312 -1.601562 8.4375 -2 C 8.6875 -2.40625 8.921875 -2.914062 9.140625 -3.53125 C 9.359375 -4.15625 9.554688 -4.847656 9.734375 -5.609375 C 9.921875 -6.378906 10.097656 -7.160156 10.265625 -7.953125 C 10.273438 -8.023438 10.265625 -8.066406 10.234375 -8.078125 C 10.210938 -8.097656 10.1875 -8.109375 10.15625 -8.109375 C 9.632812 -8.109375 9.117188 -8.203125 8.609375 -8.390625 C 8.179688 -8.535156 7.859375 -8.816406 7.640625 -9.234375 C 7.429688 -9.648438 7.398438 -10.082031 7.546875 -10.53125 C 7.578125 -10.625 7.617188 -10.753906 7.671875 -10.921875 C 7.734375 -11.085938 7.832031 -11.242188 7.96875 -11.390625 C 8.101562 -11.546875 8.28125 -11.640625 8.5 -11.671875 C 8.84375 -11.710938 9.160156 -11.59375 9.453125 -11.3125 C 9.753906 -11.03125 10.09375 -10.597656 10.46875 -10.015625 C 10.519531 -9.941406 10.566406 -9.914062 10.609375 -9.9375 C 10.648438 -9.957031 10.679688 -10 10.703125 -10.0625 C 10.941406 -11.269531 11.179688 -12.410156 11.421875 -13.484375 C 11.660156 -14.554688 11.921875 -15.519531 12.203125 -16.375 C 12.492188 -17.226562 12.828125 -17.925781 13.203125 -18.46875 C 13.585938 -19.019531 14.039062 -19.359375 14.5625 -19.484375 C 14.707031 -19.523438 14.847656 -19.5 14.984375 -19.40625 C 15.128906 -19.320312 15.21875 -19.207031 15.25 -19.0625 C 15.289062 -18.894531 15.269531 -18.742188 15.1875 -18.609375 C 15.113281 -18.472656 14.992188 -18.382812 14.828125 -18.34375 C 14.484375 -18.257812 14.171875 -17.941406 13.890625 -17.390625 C 13.609375 -16.835938 13.34375 -16.140625 13.09375 -15.296875 C 12.851562 -14.453125 12.625 -13.539062 12.40625 -12.5625 C 12.195312 -11.59375 12.003906 -10.648438 11.828125 -9.734375 C 11.804688 -9.679688 11.796875 -9.648438 11.796875 -9.640625 C 11.796875 -9.628906 11.789062 -9.609375 11.78125 -9.578125 C 11.78125 -9.523438 11.796875 -9.476562 11.828125 -9.4375 C 11.859375 -9.394531 11.882812 -9.375 11.90625 -9.375 C 12.726562 -9.507812 13.628906 -9.726562 14.609375 -10.03125 C 15.585938 -10.332031 16.59375 -10.71875 17.625 -11.1875 C 18.664062 -11.664062 19.675781 -12.222656 20.65625 -12.859375 C 21.632812 -13.503906 22.539062 -14.226562 23.375 -15.03125 C 24.207031 -15.832031 24.898438 -16.710938 25.453125 -17.671875 C 26.828125 -20.003906 26.988281 -21.691406 25.9375 -22.734375 C 25.40625 -23.253906 24.609375 -23.613281 23.546875 -23.8125 C 22.492188 -24.007812 21.269531 -24.0625 19.875 -23.96875 C 18.488281 -23.875 17.015625 -23.640625 15.453125 -23.265625 C 13.890625 -22.898438 12.332031 -22.40625 10.78125 -21.78125 C 9.238281 -21.164062 7.78125 -20.441406 6.40625 -19.609375 C 5.863281 -19.273438 5.269531 -18.863281 4.625 -18.375 C 3.976562 -17.882812 3.378906 -17.328125 2.828125 -16.703125 C 2.273438 -16.078125 1.875 -15.410156 1.625 -14.703125 C 1.375 -14.003906 1.367188 -13.273438 1.609375 -12.515625 C 1.648438 -12.347656 1.632812 -12.191406 1.5625 -12.046875 C 1.488281 -11.910156 1.367188 -11.820312 1.203125 -11.78125 C 1.054688 -11.738281 0.910156 -11.753906 0.765625 -11.828125 C 0.628906 -11.898438 0.53125 -12.007812 0.46875 -12.15625 C 0.0390625 -13.5625 0.285156 -14.992188 1.203125 -16.453125 C 2.117188 -17.910156 3.65625 -19.300781 5.8125 -20.625 C 6.925781 -21.289062 8.132812 -21.90625 9.4375 -22.46875 C 10.75 -23.03125 12.085938 -23.507812 13.453125 -23.90625 C 14.828125 -24.3125 16.1875 -24.617188 17.53125 -24.828125 C 18.875 -25.046875 20.144531 -25.15625 21.34375 -25.15625 C 22.539062 -25.15625 23.601562 -25.023438 24.53125 -24.765625 C 25.457031 -24.503906 26.203125 -24.101562 26.765625 -23.5625 C 27.109375 -23.226562 27.382812 -22.78125 27.59375 -22.21875 C 27.800781 -21.65625 27.835938 -20.953125 27.703125 -20.109375 C 27.566406 -19.273438 27.15625 -18.265625 26.46875 -17.078125 Z M 9.078125 -9.46875 C 9.160156 -9.4375 9.242188 -9.410156 9.328125 -9.390625 C 9.359375 -9.378906 9.390625 -9.378906 9.421875 -9.390625 C 9.460938 -9.410156 9.460938 -9.445312 9.421875 -9.5 C 9.222656 -9.789062 9.019531 -10.0625 8.8125 -10.3125 C 8.757812 -10.382812 8.71875 -10.363281 8.6875 -10.25 C 8.625 -10.082031 8.613281 -9.9375 8.65625 -9.8125 C 8.707031 -9.6875 8.847656 -9.570312 9.078125 -9.46875 Z M 9.078125 -9.46875 "/></g></g></g><g fill="#efecec" fill-opacity="1"><g transform="translate(169.17952, 198.806545)"><g/></g></g><g fill="#efecec" fill-opacity="1"><g transform="translate(177.457981, 198.806545)"><g><path d="M 24.890625 -25.875 C 25.679688 -25.320312 26.289062 -24.625 26.71875 -23.78125 C 27.144531 -22.9375 27.34375 -22.035156 27.3125 -21.078125 C 27.332031 -20.023438 27.125 -19.019531 26.6875 -18.0625 C 26.257812 -17.101562 25.644531 -16.289062 24.84375 -15.625 C 24.113281 -14.988281 23.28125 -14.460938 22.34375 -14.046875 C 21.40625 -13.628906 20.40625 -13.296875 19.34375 -13.046875 C 18.28125 -12.804688 17.207031 -12.628906 16.125 -12.515625 C 15.820312 -12.472656 15.65625 -12.3125 15.625 -12.03125 C 15.601562 -11.726562 15.734375 -11.523438 16.015625 -11.421875 C 16.921875 -11.097656 17.785156 -10.726562 18.609375 -10.3125 C 19.441406 -9.894531 20.1875 -9.4375 20.84375 -8.9375 C 21.5 -8.4375 22.003906 -7.898438 22.359375 -7.328125 C 22.671875 -6.867188 22.863281 -6.359375 22.9375 -5.796875 C 23.007812 -5.242188 22.960938 -4.695312 22.796875 -4.15625 C 22.472656 -3.132812 21.882812 -2.332031 21.03125 -1.75 C 20.1875 -1.164062 19.175781 -0.753906 18 -0.515625 C 16.832031 -0.273438 15.585938 -0.15625 14.265625 -0.15625 C 13.128906 -0.15625 11.976562 -0.21875 10.8125 -0.34375 C 9.65625 -0.46875 8.546875 -0.628906 7.484375 -0.828125 C 6.429688 -1.035156 5.476562 -1.238281 4.625 -1.4375 C 3.78125 -1.632812 3.09375 -1.804688 2.5625 -1.953125 C 2.039062 -2.109375 1.734375 -2.203125 1.640625 -2.234375 C 1.484375 -2.273438 1.367188 -2.363281 1.296875 -2.5 C 1.222656 -2.644531 1.207031 -2.800781 1.25 -2.96875 C 1.289062 -3.113281 1.378906 -3.222656 1.515625 -3.296875 C 1.660156 -3.367188 1.816406 -3.382812 1.984375 -3.34375 C 2.679688 -3.132812 3.519531 -2.90625 4.5 -2.65625 C 5.488281 -2.414062 6.554688 -2.191406 7.703125 -1.984375 C 8.859375 -1.773438 10.035156 -1.609375 11.234375 -1.484375 C 12.441406 -1.367188 13.613281 -1.316406 14.75 -1.328125 C 15.882812 -1.347656 16.929688 -1.460938 17.890625 -1.671875 C 18.847656 -1.878906 19.65625 -2.210938 20.3125 -2.671875 C 20.976562 -3.128906 21.429688 -3.742188 21.671875 -4.515625 C 21.929688 -5.304688 21.832031 -6.035156 21.375 -6.703125 C 20.988281 -7.304688 20.410156 -7.863281 19.640625 -8.375 C 18.878906 -8.894531 18.007812 -9.359375 17.03125 -9.765625 C 16.050781 -10.171875 15.035156 -10.53125 13.984375 -10.84375 C 12.941406 -11.164062 11.941406 -11.445312 10.984375 -11.6875 C 10.785156 -11.726562 10.601562 -11.703125 10.4375 -11.609375 C 10.28125 -11.515625 10.171875 -11.367188 10.109375 -11.171875 C 9.347656 -8.535156 8.441406 -5.945312 7.390625 -3.40625 C 7.316406 -3.257812 7.203125 -3.160156 7.046875 -3.109375 C 6.898438 -3.054688 6.753906 -3.066406 6.609375 -3.140625 C 6.460938 -3.203125 6.363281 -3.3125 6.3125 -3.46875 C 6.257812 -3.625 6.269531 -3.773438 6.34375 -3.921875 C 7.351562 -6.335938 8.210938 -8.800781 8.921875 -11.3125 C 8.984375 -11.519531 8.960938 -11.71875 8.859375 -11.90625 C 8.742188 -12.082031 8.582031 -12.195312 8.375 -12.25 C 7.738281 -12.363281 7.222656 -12.453125 6.828125 -12.515625 C 6.441406 -12.585938 6.242188 -12.625 6.234375 -12.625 C 6.066406 -12.632812 5.9375 -12.707031 5.84375 -12.84375 C 5.75 -12.976562 5.71875 -13.117188 5.75 -13.265625 C 5.757812 -13.429688 5.828125 -13.5625 5.953125 -13.65625 C 6.078125 -13.757812 6.222656 -13.800781 6.390625 -13.78125 C 6.398438 -13.78125 6.644531 -13.753906 7.125 -13.703125 C 7.601562 -13.648438 8.234375 -13.59375 9.015625 -13.53125 C 9.398438 -13.519531 9.65625 -13.703125 9.78125 -14.078125 C 10.0625 -15.054688 10.332031 -15.992188 10.59375 -16.890625 C 10.851562 -17.785156 11.082031 -18.582031 11.28125 -19.28125 C 11.476562 -19.988281 11.632812 -20.546875 11.75 -20.953125 C 11.875 -21.367188 11.9375 -21.59375 11.9375 -21.625 C 12 -21.84375 12.140625 -21.984375 12.359375 -22.046875 C 12.578125 -22.097656 12.765625 -22.046875 12.921875 -21.890625 C 13.078125 -21.710938 13.125 -21.519531 13.0625 -21.3125 C 13.039062 -21.21875 12.9375 -20.84375 12.75 -20.1875 C 12.570312 -19.539062 12.335938 -18.710938 12.046875 -17.703125 C 11.765625 -16.691406 11.445312 -15.59375 11.09375 -14.40625 C 11.019531 -14.164062 11.054688 -13.953125 11.203125 -13.765625 C 11.347656 -13.566406 11.539062 -13.46875 11.78125 -13.46875 C 12.800781 -13.46875 13.875 -13.507812 15 -13.59375 C 16.132812 -13.675781 17.257812 -13.828125 18.375 -14.046875 C 19.488281 -14.273438 20.535156 -14.582031 21.515625 -14.96875 C 22.492188 -15.363281 23.34375 -15.878906 24.0625 -16.515625 C 24.75 -17.085938 25.273438 -17.769531 25.640625 -18.5625 C 26.003906 -19.363281 26.171875 -20.210938 26.140625 -21.109375 C 26.171875 -21.867188 26.007812 -22.582031 25.65625 -23.25 C 25.3125 -23.925781 24.828125 -24.484375 24.203125 -24.921875 C 23.503906 -25.421875 22.679688 -25.8125 21.734375 -26.09375 C 20.796875 -26.375 19.789062 -26.566406 18.71875 -26.671875 C 17.65625 -26.773438 16.582031 -26.804688 15.5 -26.765625 C 14.414062 -26.722656 13.382812 -26.617188 12.40625 -26.453125 C 11.4375 -26.285156 10.585938 -26.078125 9.859375 -25.828125 C 8.347656 -25.328125 7.046875 -24.765625 5.953125 -24.140625 C 4.859375 -23.515625 3.957031 -22.875 3.25 -22.21875 C 2.550781 -21.5625 2.023438 -20.945312 1.671875 -20.375 C 1.316406 -19.8125 1.113281 -19.328125 1.0625 -18.921875 C 0.957031 -18.523438 1.078125 -18.207031 1.421875 -17.96875 C 1.671875 -17.800781 2.066406 -17.738281 2.609375 -17.78125 C 3.148438 -17.832031 3.835938 -18.023438 4.671875 -18.359375 C 5.515625 -18.691406 6.503906 -19.238281 7.640625 -20 C 7.773438 -20.082031 7.921875 -20.101562 8.078125 -20.0625 C 8.242188 -20.03125 8.375 -19.945312 8.46875 -19.8125 C 8.550781 -19.675781 8.570312 -19.53125 8.53125 -19.375 C 8.5 -19.226562 8.414062 -19.109375 8.28125 -19.015625 C 6.632812 -17.921875 5.15625 -17.191406 3.84375 -16.828125 C 2.539062 -16.472656 1.523438 -16.519531 0.796875 -16.96875 C 0.460938 -17.1875 0.210938 -17.484375 0.046875 -17.859375 C -0.117188 -18.242188 -0.171875 -18.644531 -0.109375 -19.0625 C -0.00390625 -19.84375 0.410156 -20.71875 1.140625 -21.6875 C 1.867188 -22.65625 2.925781 -23.601562 4.3125 -24.53125 C 5.695312 -25.457031 7.425781 -26.257812 9.5 -26.9375 C 10.289062 -27.207031 11.207031 -27.429688 12.25 -27.609375 C 13.300781 -27.785156 14.394531 -27.894531 15.53125 -27.9375 C 16.675781 -27.988281 17.820312 -27.953125 18.96875 -27.828125 C 20.113281 -27.710938 21.195312 -27.492188 22.21875 -27.171875 C 23.238281 -26.859375 24.128906 -26.425781 24.890625 -25.875 Z M 24.890625 -25.875 "/></g></g></g><g fill="#efecec" fill-opacity="1"><g transform="translate(202.048574, 198.806545)"><g><path d="M 18.6875 -5.71875 C 18.789062 -5.601562 18.832031 -5.460938 18.8125 -5.296875 C 18.800781 -5.128906 18.726562 -5 18.59375 -4.90625 C 18.53125 -4.851562 18.257812 -4.648438 17.78125 -4.296875 C 17.3125 -3.953125 16.675781 -3.539062 15.875 -3.0625 C 15.070312 -2.582031 14.144531 -2.101562 13.09375 -1.625 C 12.039062 -1.144531 10.910156 -0.75 9.703125 -0.4375 C 8.503906 -0.132812 7.265625 0.015625 5.984375 0.015625 C 4.472656 0.0351562 3.019531 -0.234375 1.625 -0.796875 C 0.851562 -1.109375 0.3125 -1.472656 0 -1.890625 C -0.3125 -2.304688 -0.488281 -2.710938 -0.53125 -3.109375 C -0.570312 -3.515625 -0.566406 -3.859375 -0.515625 -4.140625 C -0.378906 -4.691406 -0.117188 -5.222656 0.265625 -5.734375 C 0.648438 -6.242188 1.101562 -6.703125 1.625 -7.109375 C 2.144531 -7.515625 2.675781 -7.828125 3.21875 -8.046875 C 3.757812 -8.273438 4.253906 -8.375 4.703125 -8.34375 C 5.097656 -8.34375 5.441406 -8.203125 5.734375 -7.921875 C 6.023438 -7.640625 6.1875 -7.289062 6.21875 -6.875 C 6.226562 -6.644531 6.164062 -6.351562 6.03125 -6 C 5.894531 -5.65625 5.554688 -5.300781 5.015625 -4.9375 C 3.753906 -4.15625 2.375 -3.804688 0.875 -3.890625 C 0.789062 -3.910156 0.722656 -3.898438 0.671875 -3.859375 C 0.609375 -3.804688 0.582031 -3.742188 0.59375 -3.671875 C 0.582031 -3.535156 0.597656 -3.363281 0.640625 -3.15625 C 0.691406 -2.945312 0.820312 -2.734375 1.03125 -2.515625 C 1.238281 -2.296875 1.585938 -2.085938 2.078125 -1.890625 C 3.078125 -1.460938 4.109375 -1.21875 5.171875 -1.15625 C 6.234375 -1.09375 7.273438 -1.15625 8.296875 -1.34375 C 9.328125 -1.539062 10.3125 -1.8125 11.25 -2.15625 C 12.195312 -2.507812 13.066406 -2.894531 13.859375 -3.3125 C 14.648438 -3.726562 15.34375 -4.117188 15.9375 -4.484375 C 16.53125 -4.859375 17 -5.171875 17.34375 -5.421875 C 17.6875 -5.679688 17.859375 -5.8125 17.859375 -5.8125 C 17.992188 -5.914062 18.140625 -5.957031 18.296875 -5.9375 C 18.453125 -5.925781 18.582031 -5.851562 18.6875 -5.71875 Z M 1.375 -5.25 C 1.21875 -5.03125 1.238281 -4.910156 1.4375 -4.890625 C 1.632812 -4.867188 1.914062 -4.910156 2.28125 -5.015625 C 2.65625 -5.128906 3.039062 -5.269531 3.4375 -5.4375 C 3.832031 -5.613281 4.148438 -5.773438 4.390625 -5.921875 C 4.847656 -6.234375 5.0625 -6.515625 5.03125 -6.765625 C 5.019531 -6.929688 4.976562 -7.039062 4.90625 -7.09375 C 4.84375 -7.144531 4.75 -7.175781 4.625 -7.1875 C 4.15625 -7.21875 3.609375 -7.050781 2.984375 -6.6875 C 2.359375 -6.320312 1.820312 -5.84375 1.375 -5.25 Z M 1.375 -5.25 "/></g></g></g><g fill="#efecec" fill-opacity="1"><g transform="translate(219.873971, 198.806545)"><g><path d="M 18.609375 -5.40625 C 18.710938 -5.289062 18.765625 -5.148438 18.765625 -4.984375 C 18.753906 -4.828125 18.6875 -4.695312 18.5625 -4.59375 C 18.519531 -4.539062 18.300781 -4.351562 17.90625 -4.03125 C 17.519531 -3.707031 17.003906 -3.320312 16.359375 -2.875 C 15.710938 -2.425781 14.984375 -1.988281 14.171875 -1.5625 C 13.359375 -1.144531 12.503906 -0.804688 11.609375 -0.546875 C 10.710938 -0.296875 9.816406 -0.203125 8.921875 -0.265625 C 8.023438 -0.328125 7.164062 -0.625 6.34375 -1.15625 C 5.71875 -1.5625 5.222656 -2.082031 4.859375 -2.71875 C 4.753906 -2.894531 4.585938 -2.988281 4.359375 -3 C 4.148438 -3.019531 3.988281 -2.941406 3.875 -2.765625 C 3.550781 -2.273438 3.195312 -1.8125 2.8125 -1.375 C 2.425781 -0.9375 2.03125 -0.582031 1.625 -0.3125 C 1.226562 -0.0390625 0.84375 0.0976562 0.46875 0.109375 L 0.453125 0.109375 C 0.179688 0.0976562 -0.0664062 0.015625 -0.296875 -0.140625 C -0.523438 -0.296875 -0.691406 -0.5 -0.796875 -0.75 C -1.242188 -1.863281 -1.175781 -2.953125 -0.59375 -4.015625 C -0.101562 -5.035156 0.578125 -5.90625 1.453125 -6.625 C 2.335938 -7.34375 3.335938 -7.835938 4.453125 -8.109375 C 4.671875 -8.160156 4.859375 -8.109375 5.015625 -7.953125 C 5.171875 -7.785156 5.222656 -7.59375 5.171875 -7.375 C 5.085938 -7.164062 4.9375 -7.03125 4.71875 -6.96875 C 3.78125 -6.75 2.941406 -6.335938 2.203125 -5.734375 C 1.460938 -5.128906 0.882812 -4.390625 0.46875 -3.515625 C 0.0507812 -2.804688 -0.0195312 -2.066406 0.25 -1.296875 C 0.332031 -1.140625 0.398438 -1.0625 0.453125 -1.0625 C 0.578125 -0.976562 0.773438 -1.070312 1.046875 -1.34375 C 1.316406 -1.625 1.617188 -2.015625 1.953125 -2.515625 C 2.296875 -3.015625 2.632812 -3.566406 2.96875 -4.171875 C 3.300781 -4.785156 3.601562 -5.382812 3.875 -5.96875 C 3.988281 -6.238281 4.195312 -6.347656 4.5 -6.296875 C 4.78125 -6.253906 4.941406 -6.09375 4.984375 -5.8125 C 4.984375 -5.800781 5.015625 -5.65625 5.078125 -5.375 C 5.140625 -5.101562 5.242188 -4.765625 5.390625 -4.359375 C 5.535156 -3.960938 5.738281 -3.554688 6 -3.140625 C 6.257812 -2.734375 6.585938 -2.398438 6.984375 -2.140625 C 7.671875 -1.679688 8.410156 -1.4375 9.203125 -1.40625 C 9.992188 -1.382812 10.789062 -1.503906 11.59375 -1.765625 C 12.394531 -2.023438 13.160156 -2.351562 13.890625 -2.75 C 14.628906 -3.144531 15.289062 -3.550781 15.875 -3.96875 C 16.457031 -4.382812 16.914062 -4.734375 17.25 -5.015625 C 17.59375 -5.296875 17.773438 -5.441406 17.796875 -5.453125 C 17.910156 -5.554688 18.046875 -5.601562 18.203125 -5.59375 C 18.367188 -5.59375 18.503906 -5.53125 18.609375 -5.40625 Z M 18.609375 -5.40625 "/></g></g></g><g fill="#efecec" fill-opacity="1"><g transform="translate(237.855144, 198.806545)"><g><path d="M 19.328125 -6.25 C 19.441406 -6.144531 19.5 -6.015625 19.5 -5.859375 C 19.5 -5.691406 19.445312 -5.550781 19.34375 -5.4375 C 18.78125 -4.851562 18.085938 -4.238281 17.265625 -3.59375 C 16.441406 -2.945312 15.539062 -2.335938 14.5625 -1.765625 C 13.59375 -1.191406 12.597656 -0.726562 11.578125 -0.375 C 10.566406 -0.03125 9.601562 0.140625 8.6875 0.140625 L 8.640625 0.140625 C 7.347656 0.179688 6.265625 -0.265625 5.390625 -1.203125 C 5.015625 -1.617188 4.789062 -2.101562 4.71875 -2.65625 C 4.6875 -2.863281 4.566406 -2.992188 4.359375 -3.046875 C 4.171875 -3.109375 4.003906 -3.066406 3.859375 -2.921875 C 3.410156 -2.441406 2.941406 -2.019531 2.453125 -1.65625 C 1.960938 -1.289062 1.476562 -1.039062 1 -0.90625 C 0.53125 -0.78125 0.09375 -0.832031 -0.3125 -1.0625 C -0.695312 -1.289062 -0.90625 -1.632812 -0.9375 -2.09375 C -0.976562 -2.550781 -0.914062 -3.054688 -0.75 -3.609375 C -0.59375 -4.160156 -0.390625 -4.691406 -0.140625 -5.203125 C 0.0976562 -5.710938 0.304688 -6.128906 0.484375 -6.453125 C 0.578125 -6.585938 0.695312 -6.671875 0.84375 -6.703125 C 0.988281 -6.742188 1.128906 -6.726562 1.265625 -6.65625 C 1.398438 -6.582031 1.488281 -6.46875 1.53125 -6.3125 C 1.582031 -6.164062 1.578125 -6.019531 1.515625 -5.875 C 1.140625 -5.238281 0.84375 -4.640625 0.625 -4.078125 C 0.414062 -3.523438 0.28125 -3.066406 0.21875 -2.703125 C 0.164062 -2.335938 0.191406 -2.128906 0.296875 -2.078125 C 0.484375 -1.953125 0.765625 -1.992188 1.140625 -2.203125 C 1.523438 -2.410156 1.953125 -2.734375 2.421875 -3.171875 C 2.898438 -3.609375 3.382812 -4.117188 3.875 -4.703125 C 4.363281 -5.296875 4.816406 -5.894531 5.234375 -6.5 C 5.316406 -6.632812 5.429688 -6.71875 5.578125 -6.75 C 5.722656 -6.78125 5.859375 -6.765625 5.984375 -6.703125 C 6.117188 -6.628906 6.210938 -6.523438 6.265625 -6.390625 C 6.316406 -6.253906 6.320312 -6.117188 6.28125 -5.984375 C 6.207031 -5.796875 6.128906 -5.523438 6.046875 -5.171875 C 5.960938 -4.828125 5.898438 -4.445312 5.859375 -4.03125 C 5.816406 -3.625 5.816406 -3.234375 5.859375 -2.859375 C 5.910156 -2.492188 6.035156 -2.203125 6.234375 -1.984375 C 6.898438 -1.316406 7.703125 -1 8.640625 -1.03125 L 8.6875 -1.03125 C 9.519531 -1.03125 10.398438 -1.195312 11.328125 -1.53125 C 12.253906 -1.875 13.171875 -2.3125 14.078125 -2.84375 C 14.984375 -3.382812 15.820312 -3.953125 16.59375 -4.546875 C 17.363281 -5.148438 17.992188 -5.710938 18.484375 -6.234375 C 18.597656 -6.347656 18.738281 -6.414062 18.90625 -6.4375 C 19.070312 -6.4375 19.210938 -6.375 19.328125 -6.25 Z M 19.328125 -6.25 "/></g></g></g><g fill="#efecec" fill-opacity="1"><g transform="translate(256.259142, 198.806545)"><g><path d="M 15.296875 -6.0625 C 15.410156 -5.957031 15.46875 -5.820312 15.46875 -5.65625 C 15.46875 -5.488281 15.410156 -5.347656 15.296875 -5.234375 C 15.253906 -5.191406 15.039062 -4.988281 14.65625 -4.625 C 14.269531 -4.257812 13.753906 -3.816406 13.109375 -3.296875 C 12.472656 -2.785156 11.75 -2.28125 10.9375 -1.78125 C 10.132812 -1.289062 9.289062 -0.875 8.40625 -0.53125 C 7.519531 -0.1875 6.632812 -0.015625 5.75 -0.015625 C 5.132812 -0.015625 4.53125 -0.128906 3.9375 -0.359375 C 2.601562 -0.859375 1.613281 -1.976562 0.96875 -3.71875 C 0.332031 -5.457031 0.0976562 -7.65625 0.265625 -10.3125 C 0.253906 -10.425781 0.203125 -10.519531 0.109375 -10.59375 C 0.0234375 -10.664062 -0.078125 -10.695312 -0.203125 -10.6875 C -1.328125 -10.59375 -2.347656 -10.515625 -3.265625 -10.453125 C -4.191406 -10.390625 -4.925781 -10.335938 -5.46875 -10.296875 C -6.019531 -10.265625 -6.3125 -10.25 -6.34375 -10.25 L -6.390625 -10.25 C -6.554688 -10.226562 -6.695312 -10.269531 -6.8125 -10.375 C -6.925781 -10.488281 -6.984375 -10.628906 -6.984375 -10.796875 C -6.984375 -10.960938 -6.929688 -11.101562 -6.828125 -11.21875 C -6.734375 -11.34375 -6.601562 -11.40625 -6.4375 -11.40625 C -6.40625 -11.40625 -6.097656 -11.425781 -5.515625 -11.46875 C -4.941406 -11.507812 -4.171875 -11.566406 -3.203125 -11.640625 C -2.242188 -11.710938 -1.175781 -11.789062 0 -11.875 C 0.132812 -11.882812 0.242188 -11.945312 0.328125 -12.0625 C 0.410156 -12.1875 0.460938 -12.328125 0.484375 -12.484375 C 0.617188 -13.367188 0.796875 -14.265625 1.015625 -15.171875 C 1.234375 -16.085938 1.484375 -16.9375 1.765625 -17.71875 C 2.046875 -18.507812 2.363281 -19.160156 2.71875 -19.671875 C 3.070312 -20.179688 3.453125 -20.484375 3.859375 -20.578125 C 4.015625 -20.609375 4.226562 -20.582031 4.5 -20.5 C 4.78125 -20.414062 5.03125 -20.144531 5.25 -19.6875 C 5.414062 -19.375 5.453125 -18.847656 5.359375 -18.109375 C 5.273438 -17.378906 5.097656 -16.53125 4.828125 -15.5625 C 4.566406 -14.59375 4.253906 -13.597656 3.890625 -12.578125 C 3.816406 -12.390625 3.8125 -12.269531 3.875 -12.21875 C 3.945312 -12.164062 4.003906 -12.140625 4.046875 -12.140625 C 5.492188 -12.222656 6.863281 -12.296875 8.15625 -12.359375 C 9.457031 -12.421875 10.539062 -12.453125 11.40625 -12.453125 C 11.5625 -12.453125 11.695312 -12.390625 11.8125 -12.265625 C 11.925781 -12.148438 11.984375 -12.019531 11.984375 -11.875 C 11.984375 -11.707031 11.925781 -11.5625 11.8125 -11.4375 C 11.695312 -11.320312 11.5625 -11.265625 11.40625 -11.265625 C 10.507812 -11.265625 9.367188 -11.238281 7.984375 -11.1875 C 6.597656 -11.132812 5.15625 -11.050781 3.65625 -10.9375 C 3.519531 -10.9375 3.425781 -10.921875 3.375 -10.890625 C 3.320312 -10.859375 3.273438 -10.789062 3.234375 -10.6875 C 2.921875 -9.769531 2.609375 -8.921875 2.296875 -8.140625 C 1.992188 -7.359375 1.75 -6.726562 1.5625 -6.25 C 1.644531 -5.550781 1.796875 -4.878906 2.015625 -4.234375 C 2.234375 -3.585938 2.53125 -3.015625 2.90625 -2.515625 C 3.28125 -2.023438 3.765625 -1.671875 4.359375 -1.453125 C 5.023438 -1.191406 5.738281 -1.117188 6.5 -1.234375 C 7.257812 -1.359375 8.015625 -1.59375 8.765625 -1.9375 C 9.515625 -2.289062 10.222656 -2.691406 10.890625 -3.140625 C 11.566406 -3.597656 12.171875 -4.050781 12.703125 -4.5 C 13.242188 -4.945312 13.671875 -5.3125 13.984375 -5.59375 C 14.296875 -5.882812 14.457031 -6.039062 14.46875 -6.0625 C 14.570312 -6.175781 14.707031 -6.234375 14.875 -6.234375 C 15.039062 -6.234375 15.179688 -6.175781 15.296875 -6.0625 Z M 1.671875 -12.515625 C 1.648438 -12.421875 1.640625 -12.3125 1.640625 -12.1875 C 1.640625 -12.0625 1.703125 -12 1.828125 -12 C 1.941406 -12 2.0625 -12.007812 2.1875 -12.03125 C 2.40625 -12.039062 2.535156 -12.164062 2.578125 -12.40625 C 2.960938 -13.519531 3.289062 -14.550781 3.5625 -15.5 C 3.84375 -16.457031 4.039062 -17.253906 4.15625 -17.890625 C 4.28125 -18.535156 4.296875 -18.957031 4.203125 -19.15625 C 4.171875 -19.238281 4.113281 -19.296875 4.03125 -19.328125 C 3.9375 -19.335938 3.863281 -19.316406 3.8125 -19.265625 C 3.601562 -19.035156 3.363281 -18.601562 3.09375 -17.96875 C 2.820312 -17.332031 2.554688 -16.546875 2.296875 -15.609375 C 2.046875 -14.671875 1.835938 -13.640625 1.671875 -12.515625 Z M 1.375 -9.046875 C 1.4375 -9.046875 1.515625 -9.125 1.609375 -9.28125 C 1.710938 -9.445312 1.800781 -9.640625 1.875 -9.859375 C 1.957031 -10.085938 2.015625 -10.296875 2.046875 -10.484375 C 2.085938 -10.679688 2.085938 -10.800781 2.046875 -10.84375 C 1.835938 -10.945312 1.644531 -10.929688 1.46875 -10.796875 C 1.40625 -10.734375 1.359375 -10.609375 1.328125 -10.421875 C 1.304688 -10.242188 1.285156 -10.046875 1.265625 -9.828125 C 1.253906 -9.609375 1.257812 -9.421875 1.28125 -9.265625 C 1.300781 -9.117188 1.332031 -9.046875 1.375 -9.046875 Z M 1.375 -9.046875 "/></g></g></g><g fill="#efecec" fill-opacity="1"><g transform="translate(270.479398, 198.806545)"><g><path d="M 17.609375 -6.140625 C 17.734375 -6.023438 17.796875 -5.882812 17.796875 -5.71875 C 17.796875 -5.5625 17.742188 -5.429688 17.640625 -5.328125 C 16.984375 -4.703125 16.238281 -4.238281 15.40625 -3.9375 C 14.570312 -3.644531 13.710938 -3.523438 12.828125 -3.578125 C 11.953125 -3.640625 11.113281 -3.878906 10.3125 -4.296875 C 10.0625 -4.429688 9.796875 -4.472656 9.515625 -4.421875 C 9.242188 -4.378906 9.003906 -4.265625 8.796875 -4.078125 C 8.097656 -3.359375 7.398438 -2.5625 6.703125 -1.6875 C 6.628906 -1.613281 6.582031 -1.523438 6.5625 -1.421875 C 6.414062 -0.503906 6.226562 0.429688 6 1.390625 C 5.769531 2.347656 5.515625 3.285156 5.234375 4.203125 C 4.953125 5.128906 4.65625 5.976562 4.34375 6.75 C 4.03125 7.519531 3.710938 8.171875 3.390625 8.703125 C 3.078125 9.234375 2.769531 9.597656 2.46875 9.796875 C 2.257812 9.941406 2.035156 10.015625 1.796875 10.015625 C 1.492188 10.015625 1.238281 9.90625 1.03125 9.6875 C 0.539062 9.164062 0.320312 8.550781 0.375 7.84375 C 0.394531 7.21875 0.546875 6.507812 0.828125 5.71875 C 1.109375 4.9375 1.484375 4.109375 1.953125 3.234375 C 2.421875 2.367188 2.953125 1.488281 3.546875 0.59375 C 4.140625 -0.289062 4.757812 -1.140625 5.40625 -1.953125 C 5.46875 -2.046875 5.503906 -2.144531 5.515625 -2.25 C 5.609375 -2.675781 5.660156 -3.109375 5.671875 -3.546875 C 5.316406 -2.828125 4.828125 -2.210938 4.203125 -1.703125 C 3.578125 -1.191406 2.875 -0.820312 2.09375 -0.59375 C 1.75 -0.5 1.398438 -0.5 1.046875 -0.59375 C 0.703125 -0.6875 0.410156 -0.867188 0.171875 -1.140625 C -0.015625 -1.347656 -0.164062 -1.65625 -0.28125 -2.0625 C -0.394531 -2.476562 -0.40625 -3.023438 -0.3125 -3.703125 C -0.21875 -4.378906 0.0234375 -5.226562 0.421875 -6.25 C 0.484375 -6.40625 0.59375 -6.515625 0.75 -6.578125 C 0.90625 -6.648438 1.054688 -6.65625 1.203125 -6.59375 C 1.347656 -6.53125 1.453125 -6.425781 1.515625 -6.28125 C 1.578125 -6.132812 1.578125 -5.984375 1.515625 -5.828125 C 1.128906 -4.878906 0.898438 -4.128906 0.828125 -3.578125 C 0.765625 -3.035156 0.769531 -2.632812 0.84375 -2.375 C 0.914062 -2.125 0.984375 -1.960938 1.046875 -1.890625 C 1.265625 -1.679688 1.515625 -1.628906 1.796875 -1.734375 C 2.410156 -1.898438 2.929688 -2.164062 3.359375 -2.53125 C 3.796875 -2.894531 4.15625 -3.296875 4.4375 -3.734375 C 4.71875 -4.179688 4.9375 -4.613281 5.09375 -5.03125 C 5.257812 -5.445312 5.375 -5.796875 5.4375 -6.078125 C 5.507812 -6.359375 5.546875 -6.5 5.546875 -6.5 C 5.609375 -6.800781 5.78125 -6.960938 6.0625 -6.984375 C 6.351562 -7.015625 6.5625 -6.890625 6.6875 -6.609375 C 6.832031 -6.160156 6.90625 -5.707031 6.90625 -5.25 C 6.914062 -4.988281 7.046875 -4.8125 7.296875 -4.71875 C 7.535156 -4.613281 7.753906 -4.660156 7.953125 -4.859375 C 8.335938 -5.253906 8.710938 -5.625 9.078125 -5.96875 C 9.316406 -6.175781 9.5625 -6.179688 9.8125 -5.984375 C 10.601562 -5.410156 11.347656 -5.039062 12.046875 -4.875 C 12.742188 -4.707031 13.375 -4.664062 13.9375 -4.75 C 14.5 -4.832031 14.988281 -4.976562 15.40625 -5.1875 C 15.832031 -5.40625 16.164062 -5.609375 16.40625 -5.796875 C 16.644531 -5.992188 16.769531 -6.101562 16.78125 -6.125 C 16.90625 -6.238281 17.046875 -6.296875 17.203125 -6.296875 C 17.367188 -6.296875 17.503906 -6.242188 17.609375 -6.140625 Z M 4.90625 1.03125 C 4.925781 0.9375 4.910156 0.878906 4.859375 0.859375 C 4.804688 0.847656 4.757812 0.878906 4.71875 0.953125 C 4.125 1.828125 3.585938 2.691406 3.109375 3.546875 C 2.640625 4.398438 2.265625 5.195312 1.984375 5.9375 C 1.710938 6.6875 1.570312 7.328125 1.5625 7.859375 C 1.5625 8.078125 1.578125 8.285156 1.609375 8.484375 C 1.648438 8.691406 1.722656 8.8125 1.828125 8.84375 C 1.929688 8.851562 2.050781 8.75 2.1875 8.53125 C 2.332031 8.320312 2.53125 7.957031 2.78125 7.4375 C 3.71875 5.375 4.425781 3.238281 4.90625 1.03125 Z M 4.90625 1.03125 "/></g></g></g><path stroke-linecap="butt" transform="matrix(0, 0.75, -0.75, 0, 294.773042, 158.300423)" fill="none" stroke-linejoin="miter" d="M 0.000477393 0.499473 L 77.500482 0.499473 " stroke="#ffffff" stroke-width="1" stroke-opacity="1" stroke-miterlimit="4"/><path stroke-linecap="butt" transform="matrix(0.75, 0, 0, 0.75, 123.217146, 154.133047)" fill="none" stroke-linejoin="miter" d="M 0.00213866 0.499688 L 112.595896 0.499688 " stroke="#ffffff" stroke-width="1" stroke-opacity="1" stroke-miterlimit="4"/><g clip-path="url(#8b686a1acc)"><g clip-path="url(#7e55e8eb71)"><g clip-path="url(#dbd7d16467)"><path fill="#ffffff" d="M 69.371094 125.121094 L 70.285156 124.449219 C 71.011719 124.339844 71.652344 124.785156 72.265625 125.113281 C 78.214844 128.597656 84.164062 132.101562 89.730469 136.1875 C 90.894531 137.117188 91.390625 134.941406 92.082031 134.386719 C 93.035156 132.5 95.289062 132.4375 96.753906 131.203125 C 99 126.332031 101.175781 121.378906 104.058594 116.847656 C 106.742188 113.539062 109.054688 109.445312 113.105469 107.652344 C 113.734375 107.40625 114.507812 107.011719 115.097656 107.566406 L 115.46875 108.070312 C 115.488281 121.949219 113.585938 136.105469 110.476562 149.429688 C 115.496094 148.160156 118.089844 142.925781 119.234375 138.257812 C 119.566406 137.332031 121.460938 134.777344 122.039062 136.652344 C 122.070312 140.460938 119.027344 143.414062 116.863281 146.273438 C 116.273438 147.199219 114.597656 147.792969 114.914062 149.085938 C 117.332031 147.605469 119.328125 145.597656 121.195312 143.496094 C 123.9375 141.324219 124.382812 137.566406 126.164062 134.796875 C 127.507812 135.171875 126.3125 137.527344 126.578125 138.578125 C 124.9375 143.328125 120.417969 146.207031 116.800781 149.363281 C 115.4375 149.664062 115.832031 150.964844 115.730469 151.941406 C 115.160156 152.746094 114.21875 153.226562 113.421875 153.773438 C 112.78125 154.265625 112.191406 152.898438 111.589844 153.597656 C 110.722656 156.171875 111.222656 159.128906 112.941406 161.25 C 111.707031 162.019531 110.789062 160.144531 110.546875 159.1875 C 110.4375 158.503906 110.292969 156.691406 109.257812 157.808594 C 108.574219 159.421875 109.066406 161.238281 109.652344 162.804688 C 109.792969 163.15625 109.375 163.367188 109.097656 163.425781 C 107.933594 162.175781 108.121094 160.269531 107.664062 158.71875 C 107.378906 158.390625 107.058594 158.871094 106.792969 159.03125 C 106.917969 160.851562 107.761719 162.535156 108.113281 164.3125 C 108.175781 164.738281 107.640625 165.039062 107.28125 164.859375 C 106.785156 163.6875 106.992188 162.269531 106.054688 161.28125 C 104.992188 163.757812 105.425781 167.167969 103.84375 169.519531 L 103.203125 169.992188 C 102.433594 169.824219 103.339844 169.101562 103.472656 168.699219 C 104.214844 165.96875 104.589844 163.121094 104.6875 160.300781 C 104.746094 159.785156 104.066406 158.53125 103.835938 159.566406 C 102.929688 164.609375 101.832031 170.585938 97.089844 173.421875 C 95.398438 171.90625 96.105469 169.222656 95.695312 167.175781 C 93.035156 170.113281 89.15625 171.65625 85.308594 172.246094 C 82.914062 172.882812 80.425781 172.304688 78.398438 170.964844 C 75.28125 171.191406 74.800781 167.363281 72.683594 165.96875 L 72.316406 165.472656 C 70.730469 162.328125 71.09375 158.320312 73.335938 155.5 C 73.160156 154.363281 71.402344 154.042969 71.75 152.671875 C 70.207031 150.628906 69.902344 147.992188 68.777344 145.714844 C 68.546875 143.585938 66.578125 141.839844 67.222656 139.597656 C 65.96875 137.835938 65.675781 134.785156 66.953125 133.019531 C 66.769531 132.609375 66.367188 132.316406 66.257812 131.878906 C 67.128906 129.535156 67.519531 126.957031 69.371094 125.121094 M 68.820312 127.335938 C 68.308594 127.839844 68.359375 128.726562 69.0625 129.074219 C 73.121094 131.308594 77.128906 134.148438 81.777344 134.886719 C 80.3125 132.5625 76.929688 131.832031 74.785156 130.015625 C 73.484375 129.523438 72.527344 128.191406 71.0625 128.175781 C 70.34375 127.902344 69.65625 126.511719 68.820312 127.335938 M 67.445312 130.992188 C 66.96875 131.617188 67.5 132.554688 68.019531 133 C 72.773438 134.761719 77.109375 137.4375 81.664062 139.628906 C 83.382812 140.800781 86.382812 140.539062 87.808594 139.136719 C 83.4375 135.570312 77.171875 135.714844 72.730469 132.050781 C 70.925781 131.722656 69.199219 129.472656 67.445312 130.992188 M 74.257812 128.089844 C 78.386719 131.855469 83.773438 134.335938 88.152344 137.921875 C 90.859375 141.253906 95.164062 142.75 98.015625 146.003906 C 100.9375 147.492188 103.140625 149.894531 105.714844 151.84375 C 106.621094 151.53125 105.460938 150.828125 105.234375 150.394531 C 102.226562 147.515625 98.863281 145.03125 95.761719 142.265625 C 93.421875 141.0625 92.136719 138.480469 89.636719 137.515625 C 84.992188 134.453125 80.328125 131.503906 75.617188 128.53125 C 75.199219 128.328125 74.742188 127.941406 74.257812 128.089844 M 67.351562 134.417969 C 67.070312 136 66.546875 138.085938 68.210938 139.117188 C 73.160156 140.136719 77.679688 142.441406 82.433594 144.136719 C 84.792969 143.914062 83.8125 141.007812 82.09375 140.769531 C 79.378906 139.667969 76.871094 138.085938 74.367188 136.636719 C 71.824219 136.527344 69.753906 133.640625 67.351562 134.417969 M 68.371094 141.097656 C 68.40625 143.457031 69.488281 147.140625 72.460938 147.0625 C 76.871094 146.890625 80.714844 149.378906 85.042969 149.527344 C 85.574219 149.476562 86.660156 149.476562 86.507812 148.667969 C 84.644531 144.671875 80.007812 144.421875 76.480469 142.808594 C 74.265625 141.710938 71.8125 141.34375 69.457031 140.671875 C 69.039062 140.519531 68.628906 140.746094 68.371094 141.097656 M 111.449219 109.878906 C 110.898438 110.914062 110.597656 112.117188 110.765625 113.292969 C 111.175781 117.664062 109.765625 122.125 110.953125 126.425781 C 111.722656 127.648438 111.910156 125.257812 112.066406 124.710938 C 112.640625 119.625 113.097656 114.488281 113.054688 109.355469 C 112.5 108.800781 111.863281 109.496094 111.449219 109.878906 M 107.859375 113.425781 C 106.925781 114.5625 105.929688 115.980469 106.46875 117.527344 C 107.320312 120.890625 107.996094 124.308594 108.03125 127.757812 C 109.480469 127.027344 109.578125 124.5 109.105469 122.9375 C 109.179688 119.527344 110.503906 116.101562 109.476562 112.671875 C 108.96875 112.046875 108.265625 113.179688 107.859375 113.425781 M 104.980469 117.300781 C 104.144531 118.363281 103.117188 119.664062 103.707031 121.085938 C 104.539062 123.933594 103.882812 127.046875 105.203125 129.761719 C 106.027344 129.871094 106.480469 129 106.847656 128.417969 C 107.207031 125.082031 106.160156 121.78125 105.554688 118.511719 C 105.617188 118.15625 105.539062 116.617188 104.980469 117.300781 M 114.273438 111.886719 C 113.988281 116.835938 113.367188 121.828125 112.847656 126.777344 C 110.71875 133.523438 109.421875 140.476562 109.292969 147.558594 C 109.542969 148.023438 110.023438 147.058594 109.933594 146.851562 C 111.074219 140.863281 112.167969 134.863281 113.5 128.914062 C 113.972656 123.378906 114.667969 117.859375 114.886719 112.304688 C 114.8125 112.050781 114.46875 111.382812 114.273438 111.886719 M 102.539062 122.257812 C 101.234375 124.011719 99.625 126.171875 100.582031 128.40625 C 102.148438 130.292969 102.054688 133.15625 103.941406 134.792969 C 105.199219 131.9375 103.058594 128.753906 103.519531 125.742188 C 103.121094 124.699219 103.382812 122.554688 102.539062 122.257812 M 71.308594 148.558594 C 71.714844 150.707031 73.15625 152.71875 74.414062 154.550781 C 79.539062 153.433594 85.171875 153.597656 90.425781 154.25 C 90.996094 154.480469 92.167969 154.085938 91.707031 153.34375 C 89.933594 152.785156 88.609375 151.28125 86.761719 150.890625 C 81.714844 149.6875 76.476562 147.929688 71.308594 148.558594 M 99.125 129.355469 C 98.054688 130.894531 97.449219 132.976562 97.777344 134.816406 C 101.234375 138.304688 103.621094 142.765625 105.316406 147.359375 C 104.324219 141.796875 103.1875 136.058594 100.875 130.832031 C 100.375 130.527344 99.820312 128.527344 99.125 129.355469 M 93.777344 134.011719 C 92.214844 135.644531 94.359375 139.417969 95.808594 139.304688 C 95.554688 137.195312 96.65625 135.0625 96.0625 132.992188 C 95.179688 132.839844 94.347656 133.398438 93.777344 134.011719 M 84.261719 141.636719 C 84.171875 143.917969 86.878906 143.933594 88.160156 145.152344 C 90.734375 146.296875 93.246094 147.550781 95.613281 149.078125 C 98.632812 150.808594 102.347656 151.019531 105.101562 153.183594 C 105.898438 152.730469 104.625 152.183594 104.261719 151.902344 C 99.515625 147.839844 94.757812 143.652344 89.246094 140.730469 C 87.605469 140.90625 85.828125 141.183594 84.261719 141.636719 M 91.980469 136.375 C 90.921875 137.273438 92.324219 139.605469 93.382812 138.796875 C 92.617188 138.335938 93.167969 135.070312 91.980469 136.375 M 85.238281 144.640625 C 85.648438 147.574219 89.109375 148.625 91.617188 148.191406 C 91.441406 147.140625 89.835938 147.011719 89.09375 146.347656 C 87.867188 145.789062 86.558594 144.265625 85.238281 144.640625 M 97.316406 136.523438 C 95.316406 139.339844 98.230469 142.851562 100.445312 144.265625 C 100.503906 142.746094 98.332031 141.4375 98.222656 140.015625 C 100.460938 141.132812 101.203125 145.351562 103.617188 146.1875 C 103.015625 142.914062 100.894531 140.1875 98.960938 137.578125 C 98.542969 137.296875 97.929688 135.808594 97.316406 136.523438 M 105.757812 130.90625 C 104.699219 132.324219 105.585938 134.1875 104.96875 135.765625 C 103.597656 139.644531 106.167969 143.273438 106.457031 147.117188 C 107.039062 148.296875 107.289062 150.707031 108.863281 150.671875 C 107.941406 145.644531 108.953125 140.484375 109.460938 135.4375 C 110.109375 133.148438 111.394531 130.566406 109.976562 128.300781 C 108.402344 128.519531 107.144531 130.050781 105.757812 130.90625 M 73.539062 156.824219 C 72.679688 157.671875 73.253906 158.675781 74.355469 157.980469 C 76.082031 157.980469 74.3125 155.359375 73.539062 156.824219 M 75.59375 155.789062 C 75.238281 157.230469 77.609375 157.644531 78.582031 158.292969 C 85.816406 158.140625 93.71875 158.753906 100.28125 155.34375 C 92.101562 156.414062 83.523438 152.996094 75.59375 155.789062 M 72.527344 159.300781 C 71.8125 160.242188 72.015625 161.773438 72.90625 162.507812 C 75.027344 162.085938 76.941406 160.996094 78.980469 160.3125 C 77.703125 158.214844 74.441406 158.042969 72.527344 159.300781 M 88.023438 148.953125 C 88.214844 150.914062 90.429688 151.457031 91.847656 152.328125 C 93.40625 153.097656 94.601562 154.8125 96.476562 154.78125 C 99.308594 154.226562 102.277344 154.640625 105.050781 153.929688 C 99.691406 151.769531 93.835938 148.960938 88.023438 148.953125 M 73.644531 163.261719 C 72.035156 164.898438 74.144531 166.695312 75.410156 167.6875 C 77.816406 165.984375 80.558594 164.402344 83.484375 163.578125 C 84.398438 162.632812 84.042969 161.042969 82.519531 161.1875 C 80.378906 159.65625 78.210938 161.683594 76.070312 162.128906 C 75.125 162.054688 74.316406 162.667969 73.644531 163.261719 M 81.15625 159.320312 C 81.324219 160.492188 83.441406 159.75 84.289062 160.34375 C 86.066406 160.152344 87.933594 160.515625 89.660156 159.90625 C 94.078125 159.296875 99.015625 158.734375 102.6875 155.851562 C 102.992188 155.316406 101.96875 154.972656 101.839844 155.707031 C 99.367188 157.390625 96.226562 157.582031 93.382812 158.292969 C 89.40625 159.367188 85.050781 158.601562 81.15625 159.320312 M 77.632812 167.238281 C 76.320312 168.101562 76.035156 169.5625 77.691406 170.066406 C 78.765625 169.609375 79.875 171.175781 80.753906 170.113281 C 82.078125 168.550781 83.113281 166.652344 85.078125 165.785156 C 85.898438 165.722656 85.765625 164.472656 84.945312 164.777344 C 82.339844 164.632812 79.597656 165.5 77.632812 167.238281 M 84.878906 161.921875 C 83.617188 164.28125 87.050781 164.125 88.453125 164.628906 C 90.667969 163.070312 92.691406 161.121094 95.265625 160.09375 C 93.53125 160.125 91.957031 161.386719 90.160156 161.289062 C 88.457031 161.703125 86.339844 160.847656 84.878906 161.921875 M 84.34375 167.316406 C 83.152344 168.269531 81.546875 169.398438 81.367188 171.015625 C 82.6875 171.664062 85.007812 171.375 85.550781 169.710938 C 86.09375 168.402344 87.292969 167.433594 87.820312 166.164062 C 86.847656 164.96875 85.203125 166.761719 84.34375 167.316406 M 91.539062 162.871094 C 91.320312 163.421875 90.910156 163.867188 90.65625 164.386719 C 91.027344 164.921875 91.953125 164.660156 92.480469 165.066406 C 94.4375 162.765625 96.726562 160.738281 99.28125 159.101562 C 100.113281 159.367188 99.878906 158.117188 99.464844 158.546875 C 96.832031 160.019531 94.011719 161.171875 91.539062 162.871094 M 88.878906 165.9375 C 87.792969 167.535156 86.84375 169.222656 85.875 170.886719 C 85.742188 171.625 86.75 171.089844 87.132812 171.023438 C 90.027344 170.890625 90.855469 167.867188 92.367188 165.957031 C 92.296875 165.210938 91.367188 165.792969 90.914062 165.757812 C 90.203125 166.109375 89.382812 164.980469 88.878906 165.9375 M 98.042969 160.414062 C 96.148438 161.769531 94.902344 163.71875 93.421875 165.539062 C 94.039062 166.714844 95.71875 166.296875 95.855469 165.058594 C 96.851562 164.417969 97.582031 163.429688 97.871094 162.300781 C 98.632812 162.105469 99.175781 159.691406 98.042969 160.414062 M 92.714844 166.640625 C 92.242188 167.207031 91.21875 168.109375 91.75 168.804688 C 93.332031 169.113281 95.253906 165.488281 92.714844 166.640625 Z M 92.714844 166.640625 " fill-opacity="1" fill-rule="nonzero"/></g></g></g><g fill="#efecec" fill-opacity="1"><g transform="translate(105.16177, 214.056403)"><g><path d="M 0.703125 -5.46875 L 3.953125 -5.46875 L 3.953125 -4.828125 L 1.453125 -4.828125 L 1.453125 -3.15625 L 3.53125 -3.15625 L 3.53125 -2.546875 L 1.453125 -2.546875 L 1.453125 0 L 0.703125 0 Z M 0.703125 -5.46875 "/></g></g></g><g fill="#efecec" fill-opacity="1"><g transform="translate(110.880462, 214.056403)"><g><path d="M 0.359375 -2.015625 C 0.359375 -2.316406 0.40625 -2.597656 0.5 -2.859375 C 0.59375 -3.117188 0.722656 -3.34375 0.890625 -3.53125 C 1.054688 -3.726562 1.257812 -3.878906 1.5 -3.984375 C 1.738281 -4.097656 2 -4.15625 2.28125 -4.15625 C 2.507812 -4.15625 2.71875 -4.113281 2.90625 -4.03125 C 3.101562 -3.957031 3.269531 -3.859375 3.40625 -3.734375 L 3.40625 -4.0625 L 4.046875 -4.0625 L 4.046875 -0.984375 C 4.046875 -0.785156 4.09375 -0.65625 4.1875 -0.59375 C 4.289062 -0.539062 4.398438 -0.515625 4.515625 -0.515625 L 4.359375 0.046875 C 3.859375 0.046875 3.554688 -0.160156 3.453125 -0.578125 C 3.390625 -0.492188 3.316406 -0.410156 3.234375 -0.328125 C 3.160156 -0.242188 3.070312 -0.171875 2.96875 -0.109375 C 2.863281 -0.046875 2.742188 0 2.609375 0.03125 C 2.484375 0.0703125 2.34375 0.09375 2.1875 0.09375 C 1.925781 0.09375 1.6875 0.046875 1.46875 -0.046875 C 1.25 -0.148438 1.054688 -0.289062 0.890625 -0.46875 C 0.722656 -0.65625 0.59375 -0.878906 0.5 -1.140625 C 0.40625 -1.398438 0.359375 -1.691406 0.359375 -2.015625 Z M 2.34375 -0.53125 C 2.539062 -0.53125 2.726562 -0.578125 2.90625 -0.671875 C 3.082031 -0.765625 3.226562 -0.890625 3.34375 -1.046875 L 3.34375 -3.21875 C 3.207031 -3.320312 3.050781 -3.398438 2.875 -3.453125 C 2.707031 -3.515625 2.53125 -3.546875 2.34375 -3.546875 C 2.15625 -3.546875 1.984375 -3.507812 1.828125 -3.4375 C 1.671875 -3.363281 1.535156 -3.257812 1.421875 -3.125 C 1.316406 -3 1.234375 -2.84375 1.171875 -2.65625 C 1.109375 -2.46875 1.078125 -2.257812 1.078125 -2.03125 C 1.078125 -1.8125 1.109375 -1.609375 1.171875 -1.421875 C 1.234375 -1.242188 1.320312 -1.085938 1.4375 -0.953125 C 1.550781 -0.816406 1.679688 -0.710938 1.828125 -0.640625 C 1.984375 -0.566406 2.15625 -0.53125 2.34375 -0.53125 Z M 2.34375 -0.53125 "/></g></g></g><g fill="#efecec" fill-opacity="1"><g transform="translate(117.23974, 214.056403)"><g><path d="M 0.578125 -0.921875 C 0.710938 -0.796875 0.878906 -0.695312 1.078125 -0.625 C 1.285156 -0.550781 1.507812 -0.515625 1.75 -0.515625 C 2.039062 -0.515625 2.257812 -0.5625 2.40625 -0.65625 C 2.550781 -0.757812 2.625 -0.882812 2.625 -1.03125 C 2.625 -1.113281 2.609375 -1.1875 2.578125 -1.25 C 2.554688 -1.320312 2.503906 -1.390625 2.421875 -1.453125 C 2.347656 -1.515625 2.242188 -1.570312 2.109375 -1.625 C 1.984375 -1.6875 1.816406 -1.753906 1.609375 -1.828125 C 1.222656 -1.960938 0.9375 -2.117188 0.75 -2.296875 C 0.5625 -2.472656 0.46875 -2.722656 0.46875 -3.046875 C 0.46875 -3.203125 0.503906 -3.347656 0.578125 -3.484375 C 0.648438 -3.617188 0.75 -3.734375 0.875 -3.828125 C 1.007812 -3.929688 1.171875 -4.007812 1.359375 -4.0625 C 1.554688 -4.125 1.773438 -4.15625 2.015625 -4.15625 C 2.285156 -4.15625 2.519531 -4.128906 2.71875 -4.078125 C 2.914062 -4.023438 3.097656 -3.957031 3.265625 -3.875 L 3.0625 -3.296875 C 2.925781 -3.378906 2.765625 -3.445312 2.578125 -3.5 C 2.398438 -3.550781 2.203125 -3.578125 1.984375 -3.578125 C 1.710938 -3.578125 1.503906 -3.519531 1.359375 -3.40625 C 1.222656 -3.300781 1.15625 -3.179688 1.15625 -3.046875 C 1.15625 -2.984375 1.164062 -2.925781 1.1875 -2.875 C 1.21875 -2.820312 1.265625 -2.769531 1.328125 -2.71875 C 1.390625 -2.675781 1.472656 -2.628906 1.578125 -2.578125 C 1.679688 -2.535156 1.8125 -2.488281 1.96875 -2.4375 C 2.21875 -2.351562 2.429688 -2.265625 2.609375 -2.171875 C 2.785156 -2.078125 2.925781 -1.972656 3.03125 -1.859375 C 3.144531 -1.753906 3.222656 -1.640625 3.265625 -1.515625 C 3.316406 -1.390625 3.34375 -1.25 3.34375 -1.09375 C 3.34375 -0.90625 3.300781 -0.738281 3.21875 -0.59375 C 3.144531 -0.445312 3.035156 -0.320312 2.890625 -0.21875 C 2.753906 -0.125 2.585938 -0.0507812 2.390625 0 C 2.191406 0.0625 1.96875 0.09375 1.71875 0.09375 C 1.40625 0.09375 1.125 0.0546875 0.875 -0.015625 C 0.632812 -0.0976562 0.4375 -0.203125 0.28125 -0.328125 Z M 0.578125 -0.921875 "/></g></g></g><g fill="#efecec" fill-opacity="1"><g transform="translate(122.435032, 214.056403)"><g><path d="M 1.328125 -3.421875 C 1.472656 -3.628906 1.65625 -3.800781 1.875 -3.9375 C 2.101562 -4.082031 2.367188 -4.15625 2.671875 -4.15625 C 3.128906 -4.15625 3.472656 -4.015625 3.703125 -3.734375 C 3.929688 -3.460938 4.046875 -3.101562 4.046875 -2.65625 L 4.046875 0 L 3.34375 0 L 3.34375 -2.578125 C 3.34375 -2.867188 3.273438 -3.101562 3.140625 -3.28125 C 3.003906 -3.457031 2.8125 -3.546875 2.5625 -3.546875 C 2.445312 -3.546875 2.328125 -3.519531 2.203125 -3.46875 C 2.085938 -3.425781 1.976562 -3.363281 1.875 -3.28125 C 1.769531 -3.207031 1.671875 -3.117188 1.578125 -3.015625 C 1.484375 -2.910156 1.398438 -2.800781 1.328125 -2.6875 L 1.328125 0 L 0.625 0 L 0.625 -5.78125 L 1.328125 -5.78125 Z M 1.328125 -3.421875 "/></g></g></g><g fill="#efecec" fill-opacity="1"><g transform="translate(128.599006, 214.056403)"><g><path d="M 1.328125 0 L 0.625 0 L 0.625 -4.0625 L 1.328125 -4.0625 Z M 0.984375 -4.765625 C 0.847656 -4.765625 0.726562 -4.8125 0.625 -4.90625 C 0.53125 -5 0.484375 -5.113281 0.484375 -5.25 C 0.484375 -5.40625 0.523438 -5.523438 0.609375 -5.609375 C 0.703125 -5.703125 0.828125 -5.75 0.984375 -5.75 C 1.117188 -5.75 1.234375 -5.695312 1.328125 -5.59375 C 1.421875 -5.5 1.46875 -5.382812 1.46875 -5.25 C 1.46875 -5.101562 1.421875 -4.984375 1.328125 -4.890625 C 1.242188 -4.804688 1.128906 -4.765625 0.984375 -4.765625 Z M 0.984375 -4.765625 "/></g></g></g><g fill="#efecec" fill-opacity="1"><g transform="translate(132.091291, 214.056403)"><g><path d="M 3.640625 -2.03125 C 3.640625 -2.238281 3.609375 -2.429688 3.546875 -2.609375 C 3.484375 -2.796875 3.390625 -2.957031 3.265625 -3.09375 C 3.148438 -3.226562 3.015625 -3.332031 2.859375 -3.40625 C 2.703125 -3.488281 2.53125 -3.53125 2.34375 -3.53125 C 1.925781 -3.53125 1.601562 -3.394531 1.375 -3.125 C 1.144531 -2.851562 1.03125 -2.492188 1.03125 -2.046875 C 1.03125 -1.847656 1.0625 -1.65625 1.125 -1.46875 C 1.195312 -1.28125 1.289062 -1.117188 1.40625 -0.984375 C 1.519531 -0.847656 1.65625 -0.738281 1.8125 -0.65625 C 1.976562 -0.570312 2.15625 -0.53125 2.34375 -0.53125 C 2.539062 -0.53125 2.71875 -0.566406 2.875 -0.640625 C 3.039062 -0.710938 3.179688 -0.816406 3.296875 -0.953125 C 3.410156 -1.085938 3.492188 -1.242188 3.546875 -1.421875 C 3.609375 -1.609375 3.640625 -1.8125 3.640625 -2.03125 Z M 0.3125 -2.03125 C 0.3125 -2.363281 0.363281 -2.660156 0.46875 -2.921875 C 0.570312 -3.179688 0.710938 -3.398438 0.890625 -3.578125 C 1.078125 -3.765625 1.289062 -3.90625 1.53125 -4 C 1.78125 -4.101562 2.050781 -4.15625 2.34375 -4.15625 C 2.625 -4.15625 2.882812 -4.101562 3.125 -4 C 3.375 -3.90625 3.585938 -3.765625 3.765625 -3.578125 C 3.953125 -3.398438 4.097656 -3.179688 4.203125 -2.921875 C 4.304688 -2.660156 4.359375 -2.367188 4.359375 -2.046875 C 4.359375 -1.722656 4.304688 -1.429688 4.203125 -1.171875 C 4.109375 -0.910156 3.96875 -0.6875 3.78125 -0.5 C 3.601562 -0.3125 3.390625 -0.164062 3.140625 -0.0625 C 2.890625 0.0390625 2.625 0.09375 2.34375 0.09375 C 2.050781 0.09375 1.78125 0.0390625 1.53125 -0.0625 C 1.28125 -0.164062 1.066406 -0.3125 0.890625 -0.5 C 0.710938 -0.6875 0.570312 -0.910156 0.46875 -1.171875 C 0.363281 -1.429688 0.3125 -1.71875 0.3125 -2.03125 Z M 0.3125 -2.03125 "/></g></g></g><g fill="#efecec" fill-opacity="1"><g transform="translate(138.30214, 214.056403)"><g><path d="M 1.3125 -3.390625 C 1.457031 -3.609375 1.640625 -3.789062 1.859375 -3.9375 C 2.085938 -4.082031 2.359375 -4.15625 2.671875 -4.15625 C 3.128906 -4.15625 3.472656 -4.015625 3.703125 -3.734375 C 3.929688 -3.460938 4.046875 -3.101562 4.046875 -2.65625 L 4.046875 0 L 3.34375 0 L 3.34375 -2.578125 C 3.34375 -2.867188 3.273438 -3.101562 3.140625 -3.28125 C 3.003906 -3.457031 2.8125 -3.546875 2.5625 -3.546875 C 2.4375 -3.546875 2.316406 -3.519531 2.203125 -3.46875 C 2.085938 -3.425781 1.976562 -3.363281 1.875 -3.28125 C 1.769531 -3.207031 1.671875 -3.117188 1.578125 -3.015625 C 1.484375 -2.910156 1.398438 -2.800781 1.328125 -2.6875 L 1.328125 0 L 0.625 0 L 0.625 -4.0625 L 1.3125 -4.0625 Z M 1.3125 -3.390625 "/></g></g></g><g fill="#efecec" fill-opacity="1"><g transform="translate(144.466115, 214.056403)"><g><path d="M 0.65625 -0.4375 C 0.65625 -0.59375 0.695312 -0.71875 0.78125 -0.8125 C 0.875 -0.90625 1.003906 -0.953125 1.171875 -0.953125 C 1.304688 -0.953125 1.425781 -0.898438 1.53125 -0.796875 C 1.644531 -0.691406 1.703125 -0.570312 1.703125 -0.4375 C 1.703125 -0.28125 1.648438 -0.148438 1.546875 -0.046875 C 1.453125 0.046875 1.328125 0.09375 1.171875 0.09375 C 1.035156 0.09375 0.914062 0.0390625 0.8125 -0.0625 C 0.707031 -0.164062 0.65625 -0.289062 0.65625 -0.4375 Z M 0.65625 -0.4375 "/></g></g></g><g fill="#efecec" fill-opacity="1"><g transform="translate(148.349001, 214.056403)"><g/></g></g><g fill="#efecec" fill-opacity="1"><g transform="translate(152.231888, 214.056403)"><g><path d="M 0.703125 -5.453125 C 0.890625 -5.472656 1.113281 -5.488281 1.375 -5.5 C 1.644531 -5.519531 1.957031 -5.53125 2.3125 -5.53125 C 2.988281 -5.53125 3.503906 -5.40625 3.859375 -5.15625 C 4.210938 -4.90625 4.390625 -4.5625 4.390625 -4.125 C 4.390625 -3.832031 4.3125 -3.585938 4.15625 -3.390625 C 4.007812 -3.191406 3.789062 -3.03125 3.5 -2.90625 C 3.851562 -2.78125 4.117188 -2.609375 4.296875 -2.390625 C 4.484375 -2.171875 4.578125 -1.894531 4.578125 -1.5625 C 4.578125 -1.0625 4.378906 -0.664062 3.984375 -0.375 C 3.597656 -0.0820312 3.03125 0.0625 2.28125 0.0625 C 1.96875 0.0625 1.664062 0.0546875 1.375 0.046875 C 1.09375 0.0351562 0.867188 0.015625 0.703125 -0.015625 Z M 2.34375 -0.5625 C 2.8125 -0.5625 3.171875 -0.644531 3.421875 -0.8125 C 3.679688 -0.976562 3.8125 -1.21875 3.8125 -1.53125 C 3.8125 -1.84375 3.679688 -2.085938 3.421875 -2.265625 C 3.171875 -2.441406 2.8125 -2.53125 2.34375 -2.53125 L 1.453125 -2.53125 L 1.453125 -0.609375 C 1.722656 -0.578125 2.019531 -0.5625 2.34375 -0.5625 Z M 2.3125 -3.109375 C 2.71875 -3.109375 3.039062 -3.191406 3.28125 -3.359375 C 3.53125 -3.535156 3.65625 -3.757812 3.65625 -4.03125 C 3.65625 -4.332031 3.535156 -4.554688 3.296875 -4.703125 C 3.054688 -4.859375 2.726562 -4.9375 2.3125 -4.9375 C 2.132812 -4.9375 1.972656 -4.929688 1.828125 -4.921875 C 1.691406 -4.910156 1.566406 -4.898438 1.453125 -4.890625 L 1.453125 -3.109375 Z M 2.3125 -3.109375 "/></g></g></g><g fill="#efecec" fill-opacity="1"><g transform="translate(158.692716, 214.056403)"><g><path d="M 1.078125 -1.75 C 1.117188 -1.363281 1.25 -1.0625 1.46875 -0.84375 C 1.6875 -0.632812 1.976562 -0.53125 2.34375 -0.53125 C 2.570312 -0.53125 2.78125 -0.554688 2.96875 -0.609375 C 3.15625 -0.660156 3.335938 -0.722656 3.515625 -0.796875 L 3.671875 -0.203125 C 3.484375 -0.109375 3.269531 -0.0351562 3.03125 0.015625 C 2.800781 0.0664062 2.539062 0.09375 2.25 0.09375 C 1.957031 0.09375 1.691406 0.046875 1.453125 -0.046875 C 1.222656 -0.148438 1.023438 -0.289062 0.859375 -0.46875 C 0.703125 -0.644531 0.578125 -0.863281 0.484375 -1.125 C 0.398438 -1.394531 0.359375 -1.695312 0.359375 -2.03125 C 0.359375 -2.332031 0.398438 -2.613281 0.484375 -2.875 C 0.578125 -3.132812 0.703125 -3.359375 0.859375 -3.546875 C 1.023438 -3.742188 1.21875 -3.894531 1.4375 -4 C 1.664062 -4.101562 1.914062 -4.15625 2.1875 -4.15625 C 2.476562 -4.15625 2.734375 -4.101562 2.953125 -4 C 3.171875 -3.90625 3.351562 -3.769531 3.5 -3.59375 C 3.644531 -3.425781 3.753906 -3.226562 3.828125 -3 C 3.898438 -2.769531 3.9375 -2.53125 3.9375 -2.28125 C 3.9375 -2.09375 3.929688 -1.914062 3.921875 -1.75 Z M 2.171875 -3.546875 C 1.867188 -3.546875 1.617188 -3.441406 1.421875 -3.234375 C 1.222656 -3.023438 1.101562 -2.71875 1.0625 -2.3125 L 3.296875 -2.3125 C 3.296875 -2.707031 3.195312 -3.007812 3 -3.21875 C 2.800781 -3.4375 2.523438 -3.546875 2.171875 -3.546875 Z M 2.171875 -3.546875 "/></g></g></g><g fill="#efecec" fill-opacity="1"><g transform="translate(164.481719, 214.056403)"><g><path d="M 0.359375 -2.015625 C 0.359375 -2.316406 0.40625 -2.597656 0.5 -2.859375 C 0.59375 -3.117188 0.722656 -3.34375 0.890625 -3.53125 C 1.054688 -3.726562 1.257812 -3.878906 1.5 -3.984375 C 1.738281 -4.097656 2 -4.15625 2.28125 -4.15625 C 2.507812 -4.15625 2.71875 -4.113281 2.90625 -4.03125 C 3.101562 -3.957031 3.269531 -3.859375 3.40625 -3.734375 L 3.40625 -4.0625 L 4.046875 -4.0625 L 4.046875 -0.984375 C 4.046875 -0.785156 4.09375 -0.65625 4.1875 -0.59375 C 4.289062 -0.539062 4.398438 -0.515625 4.515625 -0.515625 L 4.359375 0.046875 C 3.859375 0.046875 3.554688 -0.160156 3.453125 -0.578125 C 3.390625 -0.492188 3.316406 -0.410156 3.234375 -0.328125 C 3.160156 -0.242188 3.070312 -0.171875 2.96875 -0.109375 C 2.863281 -0.046875 2.742188 0 2.609375 0.03125 C 2.484375 0.0703125 2.34375 0.09375 2.1875 0.09375 C 1.925781 0.09375 1.6875 0.046875 1.46875 -0.046875 C 1.25 -0.148438 1.054688 -0.289062 0.890625 -0.46875 C 0.722656 -0.65625 0.59375 -0.878906 0.5 -1.140625 C 0.40625 -1.398438 0.359375 -1.691406 0.359375 -2.015625 Z M 2.34375 -0.53125 C 2.539062 -0.53125 2.726562 -0.578125 2.90625 -0.671875 C 3.082031 -0.765625 3.226562 -0.890625 3.34375 -1.046875 L 3.34375 -3.21875 C 3.207031 -3.320312 3.050781 -3.398438 2.875 -3.453125 C 2.707031 -3.515625 2.53125 -3.546875 2.34375 -3.546875 C 2.15625 -3.546875 1.984375 -3.507812 1.828125 -3.4375 C 1.671875 -3.363281 1.535156 -3.257812 1.421875 -3.125 C 1.316406 -3 1.234375 -2.84375 1.171875 -2.65625 C 1.109375 -2.46875 1.078125 -2.257812 1.078125 -2.03125 C 1.078125 -1.8125 1.109375 -1.609375 1.171875 -1.421875 C 1.234375 -1.242188 1.320312 -1.085938 1.4375 -0.953125 C 1.550781 -0.816406 1.679688 -0.710938 1.828125 -0.640625 C 1.984375 -0.566406 2.15625 -0.53125 2.34375 -0.53125 Z M 2.34375 -0.53125 "/></g></g></g><g fill="#efecec" fill-opacity="1"><g transform="translate(170.840994, 214.056403)"><g><path d="M 4.265625 0.046875 C 4.015625 0.046875 3.816406 -0.00390625 3.671875 -0.109375 C 3.523438 -0.210938 3.421875 -0.359375 3.359375 -0.546875 C 3.179688 -0.359375 2.972656 -0.203125 2.734375 -0.078125 C 2.492188 0.0351562 2.234375 0.09375 1.953125 0.09375 C 1.773438 0.09375 1.601562 0.0625 1.4375 0 C 1.28125 -0.0507812 1.132812 -0.132812 1 -0.25 C 0.875 -0.375 0.773438 -0.53125 0.703125 -0.71875 C 0.628906 -0.914062 0.59375 -1.148438 0.59375 -1.421875 L 0.59375 -4.0625 L 1.296875 -4.0625 L 1.296875 -1.515625 C 1.296875 -1.203125 1.359375 -0.957031 1.484375 -0.78125 C 1.617188 -0.613281 1.820312 -0.53125 2.09375 -0.53125 C 2.3125 -0.53125 2.519531 -0.570312 2.71875 -0.65625 C 2.914062 -0.75 3.09375 -0.867188 3.25 -1.015625 L 3.25 -4.0625 L 3.953125 -4.0625 L 3.953125 -1.0625 C 3.953125 -0.945312 3.960938 -0.851562 3.984375 -0.78125 C 4.015625 -0.707031 4.050781 -0.648438 4.09375 -0.609375 C 4.132812 -0.578125 4.179688 -0.550781 4.234375 -0.53125 C 4.296875 -0.519531 4.351562 -0.515625 4.40625 -0.515625 Z M 4.265625 0.046875 "/></g></g></g><g fill="#efecec" fill-opacity="1"><g transform="translate(177.098713, 214.056403)"><g><path d="M 0.953125 -5.203125 L 1.484375 -5.203125 L 1.484375 -3.921875 L 2.609375 -3.921875 L 2.609375 -3.3125 L 1.484375 -3.3125 L 1.484375 -1.34375 C 1.484375 -1.195312 1.5 -1.070312 1.53125 -0.96875 C 1.570312 -0.863281 1.617188 -0.78125 1.671875 -0.71875 C 1.734375 -0.65625 1.800781 -0.609375 1.875 -0.578125 C 1.957031 -0.546875 2.046875 -0.53125 2.140625 -0.53125 C 2.265625 -0.53125 2.382812 -0.550781 2.5 -0.59375 C 2.613281 -0.632812 2.722656 -0.6875 2.828125 -0.75 L 3.03125 -0.1875 C 2.925781 -0.125 2.785156 -0.0625 2.609375 0 C 2.429688 0.0625 2.242188 0.09375 2.046875 0.09375 C 1.660156 0.09375 1.351562 -0.03125 1.125 -0.28125 C 0.894531 -0.539062 0.78125 -0.914062 0.78125 -1.40625 L 0.78125 -3.3125 L 0.078125 -3.3125 L 0.078125 -3.921875 L 0.796875 -3.921875 Z M 0.953125 -5.203125 "/></g></g></g><g fill="#efecec" fill-opacity="1"><g transform="translate(181.739357, 214.056403)"><g><path d="M 0.734375 1.8125 C 0.578125 1.8125 0.4375 1.796875 0.3125 1.765625 C 0.195312 1.734375 0.109375 1.695312 0.046875 1.65625 L 0.203125 1.078125 C 0.265625 1.109375 0.335938 1.132812 0.421875 1.15625 C 0.515625 1.1875 0.625 1.203125 0.75 1.203125 C 0.851562 1.203125 0.953125 1.1875 1.046875 1.15625 C 1.148438 1.125 1.242188 1.066406 1.328125 0.984375 C 1.421875 0.910156 1.503906 0.804688 1.578125 0.671875 C 1.660156 0.535156 1.742188 0.367188 1.828125 0.171875 L 2 -0.3125 L 1.625 -0.3125 L 0.046875 -3.875 L 0.671875 -4.15625 L 2.1875 -0.78125 L 3.359375 -4.125 L 4.015625 -3.875 L 2.515625 0.203125 C 2.398438 0.515625 2.28125 0.773438 2.15625 0.984375 C 2.03125 1.191406 1.894531 1.359375 1.75 1.484375 C 1.601562 1.609375 1.441406 1.691406 1.265625 1.734375 C 1.097656 1.785156 0.921875 1.8125 0.734375 1.8125 Z M 0.734375 1.8125 "/></g></g></g><g fill="#efecec" fill-opacity="1"><g transform="translate(187.364306, 214.056403)"><g><path d="M 0.65625 -0.4375 C 0.65625 -0.59375 0.695312 -0.71875 0.78125 -0.8125 C 0.875 -0.90625 1.003906 -0.953125 1.171875 -0.953125 C 1.304688 -0.953125 1.425781 -0.898438 1.53125 -0.796875 C 1.644531 -0.691406 1.703125 -0.570312 1.703125 -0.4375 C 1.703125 -0.28125 1.648438 -0.148438 1.546875 -0.046875 C 1.453125 0.046875 1.328125 0.09375 1.171875 0.09375 C 1.035156 0.09375 0.914062 0.0390625 0.8125 -0.0625 C 0.707031 -0.164062 0.65625 -0.289062 0.65625 -0.4375 Z M 0.65625 -0.4375 "/></g></g></g><g fill="#efecec" fill-opacity="1"><g transform="translate(191.247189, 214.056403)"><g/></g></g><g fill="#efecec" fill-opacity="1"><g transform="translate(195.130072, 214.056403)"><g><path d="M 3.953125 0 L 0.703125 0 L 0.703125 -5.46875 L 1.453125 -5.46875 L 1.453125 -0.671875 L 3.953125 -0.671875 Z M 3.953125 0 "/></g></g></g><g fill="#efecec" fill-opacity="1"><g transform="translate(200.66128, 214.056403)"><g><path d="M 1.328125 0 L 0.625 0 L 0.625 -4.0625 L 1.328125 -4.0625 Z M 0.984375 -4.765625 C 0.847656 -4.765625 0.726562 -4.8125 0.625 -4.90625 C 0.53125 -5 0.484375 -5.113281 0.484375 -5.25 C 0.484375 -5.40625 0.523438 -5.523438 0.609375 -5.609375 C 0.703125 -5.703125 0.828125 -5.75 0.984375 -5.75 C 1.117188 -5.75 1.234375 -5.695312 1.328125 -5.59375 C 1.421875 -5.5 1.46875 -5.382812 1.46875 -5.25 C 1.46875 -5.101562 1.421875 -4.984375 1.328125 -4.890625 C 1.242188 -4.804688 1.128906 -4.765625 0.984375 -4.765625 Z M 0.984375 -4.765625 "/></g></g></g><g fill="#efecec" fill-opacity="1"><g transform="translate(204.153564, 214.056403)"><g><path d="M 1.3125 -3.390625 C 1.457031 -3.609375 1.640625 -3.789062 1.859375 -3.9375 C 2.078125 -4.082031 2.332031 -4.15625 2.625 -4.15625 C 2.945312 -4.15625 3.207031 -4.078125 3.40625 -3.921875 C 3.613281 -3.773438 3.765625 -3.566406 3.859375 -3.296875 C 4.015625 -3.535156 4.203125 -3.738281 4.421875 -3.90625 C 4.648438 -4.070312 4.925781 -4.15625 5.25 -4.15625 C 5.46875 -4.15625 5.660156 -4.117188 5.828125 -4.046875 C 5.992188 -3.972656 6.128906 -3.867188 6.234375 -3.734375 C 6.347656 -3.609375 6.429688 -3.453125 6.484375 -3.265625 C 6.535156 -3.078125 6.5625 -2.875 6.5625 -2.65625 L 6.5625 0 L 5.859375 0 L 5.859375 -2.59375 C 5.859375 -2.875 5.789062 -3.101562 5.65625 -3.28125 C 5.53125 -3.457031 5.351562 -3.546875 5.125 -3.546875 C 5.007812 -3.546875 4.894531 -3.519531 4.78125 -3.46875 C 4.675781 -3.425781 4.570312 -3.363281 4.46875 -3.28125 C 4.375 -3.195312 4.28125 -3.101562 4.1875 -3 C 4.101562 -2.894531 4.023438 -2.785156 3.953125 -2.671875 L 3.953125 0 L 3.25 0 L 3.25 -2.59375 C 3.25 -2.875 3.179688 -3.101562 3.046875 -3.28125 C 2.921875 -3.457031 2.742188 -3.546875 2.515625 -3.546875 C 2.398438 -3.546875 2.285156 -3.519531 2.171875 -3.46875 C 2.066406 -3.425781 1.960938 -3.363281 1.859375 -3.28125 C 1.753906 -3.207031 1.65625 -3.117188 1.5625 -3.015625 C 1.476562 -2.910156 1.398438 -2.800781 1.328125 -2.6875 L 1.328125 0 L 0.625 0 L 0.625 -4.0625 L 1.3125 -4.0625 Z M 1.3125 -3.390625 "/></g></g></g><g fill="#efecec" fill-opacity="1"><g transform="translate(212.840802, 214.056403)"><g><path d="M 1.328125 0 L 0.625 0 L 0.625 -4.0625 L 1.328125 -4.0625 Z M 0.984375 -4.765625 C 0.847656 -4.765625 0.726562 -4.8125 0.625 -4.90625 C 0.53125 -5 0.484375 -5.113281 0.484375 -5.25 C 0.484375 -5.40625 0.523438 -5.523438 0.609375 -5.609375 C 0.703125 -5.703125 0.828125 -5.75 0.984375 -5.75 C 1.117188 -5.75 1.234375 -5.695312 1.328125 -5.59375 C 1.421875 -5.5 1.46875 -5.382812 1.46875 -5.25 C 1.46875 -5.101562 1.421875 -4.984375 1.328125 -4.890625 C 1.242188 -4.804688 1.128906 -4.765625 0.984375 -4.765625 Z M 0.984375 -4.765625 "/></g></g></g><g fill="#efecec" fill-opacity="1"><g transform="translate(216.333085, 214.056403)"><g><path d="M 0.953125 -5.203125 L 1.484375 -5.203125 L 1.484375 -3.921875 L 2.609375 -3.921875 L 2.609375 -3.3125 L 1.484375 -3.3125 L 1.484375 -1.34375 C 1.484375 -1.195312 1.5 -1.070312 1.53125 -0.96875 C 1.570312 -0.863281 1.617188 -0.78125 1.671875 -0.71875 C 1.734375 -0.65625 1.800781 -0.609375 1.875 -0.578125 C 1.957031 -0.546875 2.046875 -0.53125 2.140625 -0.53125 C 2.265625 -0.53125 2.382812 -0.550781 2.5 -0.59375 C 2.613281 -0.632812 2.722656 -0.6875 2.828125 -0.75 L 3.03125 -0.1875 C 2.925781 -0.125 2.785156 -0.0625 2.609375 0 C 2.429688 0.0625 2.242188 0.09375 2.046875 0.09375 C 1.660156 0.09375 1.351562 -0.03125 1.125 -0.28125 C 0.894531 -0.539062 0.78125 -0.914062 0.78125 -1.40625 L 0.78125 -3.3125 L 0.078125 -3.3125 L 0.078125 -3.921875 L 0.796875 -3.921875 Z M 0.953125 -5.203125 "/></g></g></g><g fill="#efecec" fill-opacity="1"><g transform="translate(220.973728, 214.056403)"><g><path d="M 1.078125 -1.75 C 1.117188 -1.363281 1.25 -1.0625 1.46875 -0.84375 C 1.6875 -0.632812 1.976562 -0.53125 2.34375 -0.53125 C 2.570312 -0.53125 2.78125 -0.554688 2.96875 -0.609375 C 3.15625 -0.660156 3.335938 -0.722656 3.515625 -0.796875 L 3.671875 -0.203125 C 3.484375 -0.109375 3.269531 -0.0351562 3.03125 0.015625 C 2.800781 0.0664062 2.539062 0.09375 2.25 0.09375 C 1.957031 0.09375 1.691406 0.046875 1.453125 -0.046875 C 1.222656 -0.148438 1.023438 -0.289062 0.859375 -0.46875 C 0.703125 -0.644531 0.578125 -0.863281 0.484375 -1.125 C 0.398438 -1.394531 0.359375 -1.695312 0.359375 -2.03125 C 0.359375 -2.332031 0.398438 -2.613281 0.484375 -2.875 C 0.578125 -3.132812 0.703125 -3.359375 0.859375 -3.546875 C 1.023438 -3.742188 1.21875 -3.894531 1.4375 -4 C 1.664062 -4.101562 1.914062 -4.15625 2.1875 -4.15625 C 2.476562 -4.15625 2.734375 -4.101562 2.953125 -4 C 3.171875 -3.90625 3.351562 -3.769531 3.5 -3.59375 C 3.644531 -3.425781 3.753906 -3.226562 3.828125 -3 C 3.898438 -2.769531 3.9375 -2.53125 3.9375 -2.28125 C 3.9375 -2.09375 3.929688 -1.914062 3.921875 -1.75 Z M 2.171875 -3.546875 C 1.867188 -3.546875 1.617188 -3.441406 1.421875 -3.234375 C 1.222656 -3.023438 1.101562 -2.71875 1.0625 -2.3125 L 3.296875 -2.3125 C 3.296875 -2.707031 3.195312 -3.007812 3 -3.21875 C 2.800781 -3.4375 2.523438 -3.546875 2.171875 -3.546875 Z M 2.171875 -3.546875 "/></g></g></g><g fill="#efecec" fill-opacity="1"><g transform="translate(226.762731, 214.056403)"><g><path d="M 2.171875 0.09375 C 1.921875 0.09375 1.679688 0.046875 1.453125 -0.046875 C 1.234375 -0.148438 1.039062 -0.289062 0.875 -0.46875 C 0.71875 -0.65625 0.59375 -0.878906 0.5 -1.140625 C 0.40625 -1.398438 0.359375 -1.691406 0.359375 -2.015625 C 0.359375 -2.316406 0.40625 -2.597656 0.5 -2.859375 C 0.59375 -3.128906 0.722656 -3.359375 0.890625 -3.546875 C 1.054688 -3.734375 1.25 -3.878906 1.46875 -3.984375 C 1.6875 -4.097656 1.914062 -4.15625 2.15625 -4.15625 C 2.425781 -4.15625 2.660156 -4.097656 2.859375 -3.984375 C 3.054688 -3.878906 3.207031 -3.769531 3.3125 -3.65625 L 3.3125 -5.78125 L 4.015625 -5.78125 L 4.015625 -0.984375 C 4.015625 -0.785156 4.0625 -0.65625 4.15625 -0.59375 C 4.257812 -0.539062 4.367188 -0.515625 4.484375 -0.515625 L 4.328125 0.046875 C 3.835938 0.046875 3.535156 -0.15625 3.421875 -0.5625 C 3.304688 -0.394531 3.144531 -0.242188 2.9375 -0.109375 C 2.738281 0.0234375 2.484375 0.09375 2.171875 0.09375 Z M 2.328125 -0.53125 C 2.515625 -0.53125 2.695312 -0.578125 2.875 -0.671875 C 3.050781 -0.765625 3.195312 -0.882812 3.3125 -1.03125 L 3.3125 -3.046875 C 3.21875 -3.171875 3.082031 -3.285156 2.90625 -3.390625 C 2.726562 -3.492188 2.53125 -3.546875 2.3125 -3.546875 C 2.125 -3.546875 1.953125 -3.503906 1.796875 -3.421875 C 1.648438 -3.347656 1.519531 -3.242188 1.40625 -3.109375 C 1.300781 -2.972656 1.21875 -2.8125 1.15625 -2.625 C 1.101562 -2.445312 1.078125 -2.25 1.078125 -2.03125 C 1.078125 -1.8125 1.109375 -1.609375 1.171875 -1.421875 C 1.234375 -1.242188 1.316406 -1.085938 1.421875 -0.953125 C 1.535156 -0.828125 1.671875 -0.722656 1.828125 -0.640625 C 1.984375 -0.566406 2.148438 -0.53125 2.328125 -0.53125 Z M 2.328125 -0.53125 "/></g></g></g></svg>